<svg xmlns="http://www.w3.org/2000/svg" width="70" height="57" viewBox="0 0 70 57">
  <g id="apple" transform="translate(-4529 442)">
    <rect id="Rectangle_1406" data-name="Rectangle 1406" width="70" height="57" transform="translate(4529 -442)" fill="#fff" opacity="0"/>
    <g id="apple_logo" transform="translate(4534 -441)">
      <path id="Path_1428" data-name="Path 1428" d="M60.979,160.76c-8.186-.048-14.957-16.944-14.957-25.549,0-14.056,10.428-17.134,14.447-17.134a16.474,16.474,0,0,1,5.451,1.356,12.08,12.08,0,0,0,3.113.9,9.609,9.609,0,0,0,2.233-.732A17.736,17.736,0,0,1,78,117.958h.016c1.972,0,7.95.438,11.544,5.9l.842,1.279-1.212.924c-1.731,1.321-4.889,3.73-4.889,8.5a9.6,9.6,0,0,0,5.3,8.871c.759.461,1.544.937,1.544,1.978,0,.679-5.363,15.269-13.15,15.269a10.482,10.482,0,0,1-4.441-1.09,8.925,8.925,0,0,0-3.953-.963,10.078,10.078,0,0,0-3.13.856,15.19,15.19,0,0,1-5.429,1.281Z" transform="translate(-46.022 -105.76)"/>
      <path id="Path_1429" data-name="Path 1429" d="M265.1,0c.2,7.039-4.839,11.923-9.868,11.617C254.4,6,260.261,0,265.1,0Z" transform="translate(-232.439)"/>
    </g>
  </g>
</svg>
