<svg id="apple_logo" xmlns="http://www.w3.org/2000/svg" width="44.46" height="54.205" viewBox="0 0 44.46 54.205">
  <path id="Path_1284" data-name="Path 1284" d="M60.762,159.965c-8.067-.047-14.74-16.629-14.74-25.075,0-13.8,10.277-16.815,14.238-16.815a16.291,16.291,0,0,1,5.372,1.33,11.944,11.944,0,0,0,3.068.885,9.5,9.5,0,0,0,2.2-.718,17.539,17.539,0,0,1,6.633-1.615h.015c1.943,0,7.835.429,11.377,5.786l.83,1.255-1.194.907c-1.706,1.3-4.818,3.66-4.818,8.344a9.42,9.42,0,0,0,5.218,8.706c.748.453,1.521.92,1.521,1.941,0,.667-5.285,14.985-12.96,14.985a10.365,10.365,0,0,1-4.376-1.07,8.825,8.825,0,0,0-3.9-.945,9.965,9.965,0,0,0-3.085.84,15.022,15.022,0,0,1-5.35,1.257Z" transform="translate(-46.022 -105.76)"/>
  <path id="Path_1285" data-name="Path 1285" d="M265.1,0c.2,7.039-4.839,11.923-9.868,11.617C254.4,6,260.261,0,265.1,0Z" transform="translate(-232.861)"/>
</svg>
