<svg xmlns="http://www.w3.org/2000/svg" xmlns:xlink="http://www.w3.org/1999/xlink" width="98.572" height="92" viewBox="0 0 98.572 92">
  <defs>
    <linearGradient id="linear-gradient" x1="0.057" y1="1" x2="1" y2="0.098" gradientUnits="objectBoundingBox">
      <stop offset="0" stop-color="#bf3efe"/>
      <stop offset="1" stop-color="#1b9eff"/>
    </linearGradient>
  </defs>
  <path id="customize-icon" d="M19.715,92a6.571,6.571,0,0,1-6.572-6.571V19.715a6.572,6.572,0,0,1,6.572-6.572H92a6.572,6.572,0,0,1,6.572,6.572V85.429A6.571,6.571,0,0,1,92,92ZM16.429,19.715V85.429a3.285,3.285,0,0,0,3.286,3.285H92a3.285,3.285,0,0,0,3.286-3.285V19.715A3.285,3.285,0,0,0,92,16.429H19.715A3.285,3.285,0,0,0,16.429,19.715ZM82.143,85.429V82.143H92v3.286Zm-31.215,0a1.643,1.643,0,0,1-1.643-1.643V79.444a21.333,21.333,0,0,1-3.138-1.3l-3.068,3.069a1.646,1.646,0,0,1-2.324,0l-6.971-6.971a1.644,1.644,0,0,1,0-2.323l3.071-3.069a20.885,20.885,0,0,1-1.3-3.137H31.215a1.643,1.643,0,0,1-1.643-1.643V54.214a1.643,1.643,0,0,1,1.643-1.643h4.342a21.256,21.256,0,0,1,.9-2.326c.125-.273.257-.543.394-.812l-3.069-3.068a1.645,1.645,0,0,1,0-2.324l6.971-6.971a1.645,1.645,0,0,1,2.324,0l3.068,3.069a21.334,21.334,0,0,1,3.138-1.3V34.5a1.642,1.642,0,0,1,1.643-1.643h9.858A1.642,1.642,0,0,1,62.429,34.5v4.342a21.334,21.334,0,0,1,3.138,1.3l3.068-3.069a1.645,1.645,0,0,1,2.324,0l6.97,6.971a1.645,1.645,0,0,1,0,2.324l-3.071,3.068a20.9,20.9,0,0,1,1.3,3.138H80.5a1.643,1.643,0,0,1,1.643,1.643v9.857A1.643,1.643,0,0,1,80.5,65.714H76.158a20.885,20.885,0,0,1-1.3,3.137l3.071,3.069a1.644,1.644,0,0,1,0,2.323l-6.97,6.971a1.646,1.646,0,0,1-2.324,0l-3.068-3.069a21.333,21.333,0,0,1-3.138,1.3v4.342a1.643,1.643,0,0,1-1.642,1.643ZM46.694,74.7A17.935,17.935,0,0,0,51.34,76.62a1.644,1.644,0,0,1,1.232,1.59v3.933h6.571V78.21a1.644,1.644,0,0,1,1.232-1.59A17.935,17.935,0,0,0,65.021,74.7a1.643,1.643,0,0,1,2,.253L69.8,77.73l4.647-4.648L71.664,70.3a1.645,1.645,0,0,1-.253-2,17.922,17.922,0,0,0,1.922-4.646,1.644,1.644,0,0,1,1.59-1.232h3.933V55.858H74.924a1.643,1.643,0,0,1-1.59-1.233,17.948,17.948,0,0,0-1.922-4.646,1.645,1.645,0,0,1,.253-2L74.443,45.2,69.8,40.556l-2.779,2.779a1.641,1.641,0,0,1-2,.253,17.964,17.964,0,0,0-4.646-1.922,1.644,1.644,0,0,1-1.232-1.59V36.143H52.572V40.07a1.643,1.643,0,0,1-1.232,1.589,17.966,17.966,0,0,0-4.646,1.922,1.641,1.641,0,0,1-2-.252l-2.78-2.781L37.272,45.2l2.778,2.779a1.646,1.646,0,0,1,.253,2,18.23,18.23,0,0,0-1.922,4.653,1.643,1.643,0,0,1-1.59,1.233H32.857v6.571H36.79a1.644,1.644,0,0,1,1.59,1.232A17.922,17.922,0,0,0,40.3,68.306a1.645,1.645,0,0,1-.253,2l-2.778,2.779,4.646,4.648,2.78-2.78a1.643,1.643,0,0,1,2-.253ZM6.572,78.857A6.572,6.572,0,0,1,0,72.285V6.572A6.572,6.572,0,0,1,6.572,0H78.857a6.572,6.572,0,0,1,6.572,6.572V9.857H82.143V6.572a3.285,3.285,0,0,0-3.286-3.286H6.572A3.285,3.285,0,0,0,3.286,6.572V72.285a3.285,3.285,0,0,0,3.286,3.286H9.857v3.286ZM44.357,59.143a11.5,11.5,0,1,1,11.5,11.5A11.5,11.5,0,0,1,44.357,59.143Zm3.286,0a8.214,8.214,0,1,0,8.213-8.214A8.214,8.214,0,0,0,47.643,59.143ZM19.715,44.357V41.072h9.857v3.286Zm0-6.572V34.5H32.857v3.286Zm0-8.214V26.285H92v3.286ZM32.857,23V19.715h3.286V23Zm-6.572,0V19.715h3.286V23Zm-6.571,0V19.715H23V23Zm0-13.144V6.572H23V9.857Zm-6.572,0V6.572h3.286V9.857Zm-6.571,0V6.572H9.857V9.857Z" fill="url(#linear-gradient)"/>
</svg>
