<svg xmlns="http://www.w3.org/2000/svg" xmlns:xlink="http://www.w3.org/1999/xlink" width="92" height="92" viewBox="0 0 92 92">
  <defs>
    <linearGradient id="linear-gradient" x1="-0.152" y1="1" x2="1.141" y2="-0.087" gradientUnits="objectBoundingBox">
      <stop offset="0" stop-color="#bf3efe"/>
      <stop offset="1" stop-color="#1b9eff"/>
    </linearGradient>
  </defs>
  <path id="devices_icon" d="M22.862,92H10.871a1.534,1.534,0,0,1-1.211-.582A1.506,1.506,0,0,1,9.384,90.1l1.027-4.233H4.6a4.613,4.613,0,0,1-4.6-4.6V65.933a4.614,4.614,0,0,1,4.6-4.6H29.133a4.613,4.613,0,0,1,4.6,4.6V81.266a4.612,4.612,0,0,1-4.6,4.6H23.322L24.35,90.1a1.507,1.507,0,0,1-.276,1.319,1.533,1.533,0,0,1-1.2.582ZM12.819,88.934h8.1l-.751-3.067H13.57ZM3.066,81.266A1.534,1.534,0,0,0,4.6,82.8H29.133a1.534,1.534,0,0,0,1.534-1.534V79.734H3.066Zm0-15.333V76.667h27.6V65.933A1.533,1.533,0,0,0,29.133,64.4H4.6A1.533,1.533,0,0,0,3.066,65.933ZM75.133,92a4.614,4.614,0,0,1-4.6-4.6V62.867a4.614,4.614,0,0,1,4.6-4.6H87.4a4.613,4.613,0,0,1,4.6,4.6V87.4A4.613,4.613,0,0,1,87.4,92ZM73.6,62.867V87.4a1.534,1.534,0,0,0,1.533,1.534H87.4A1.534,1.534,0,0,0,88.934,87.4V62.867A1.534,1.534,0,0,0,87.4,61.333a4.613,4.613,0,0,1-4.6,4.6H79.734a4.614,4.614,0,0,1-4.6-4.6A1.534,1.534,0,0,0,73.6,62.867Zm6.133,0H82.8a1.534,1.534,0,0,0,1.534-1.534H78.2A1.534,1.534,0,0,0,79.734,62.867ZM46,79.734A1.534,1.534,0,0,1,44.466,78.2V65.933h3.067V76.667H67.467v3.067ZM43.087,62.867a1.554,1.554,0,0,1-1.534-1.349l-.46-3.68-2.929,2.284a1.534,1.534,0,0,1-2.024-.138l-4.125-4.125a1.524,1.524,0,0,1-.138-2.024l2.285-2.929-3.68-.46a1.554,1.554,0,0,1-1.35-1.534V43.087a1.554,1.554,0,0,1,1.35-1.534l3.68-.46-2.285-2.929a1.524,1.524,0,0,1,.138-2.024l4.125-4.125a1.534,1.534,0,0,1,2.024-.138l2.929,2.284.46-3.679a1.554,1.554,0,0,1,1.534-1.35h5.827a1.554,1.554,0,0,1,1.534,1.35l.46,3.679,2.929-2.284a1.534,1.534,0,0,1,2.024.138l4.125,4.125a1.524,1.524,0,0,1,.138,2.024l-2.284,2.929,3.68.46a1.554,1.554,0,0,1,1.349,1.534v5.827a1.554,1.554,0,0,1-1.349,1.534l-3.68.46,2.284,2.929a1.524,1.524,0,0,1-.138,2.024l-4.125,4.125a1.534,1.534,0,0,1-2.024.138l-2.929-2.284-.46,3.68a1.554,1.554,0,0,1-1.534,1.349ZM41.86,54.448a11.954,11.954,0,0,0,1.1.461,1.516,1.516,0,0,1,1.012,1.257l.46,3.633h3.128l.46-3.633a1.516,1.516,0,0,1,1.012-1.257,11.852,11.852,0,0,0,1.1-.461,1.5,1.5,0,0,1,1.61.169l2.9,2.254,2.223-2.223-2.254-2.9a1.5,1.5,0,0,1-.168-1.61c.168-.353.321-.721.46-1.089a1.506,1.506,0,0,1,1.257-1.027l3.633-.46V44.436l-3.633-.46a1.506,1.506,0,0,1-1.257-1.027c-.139-.368-.292-.736-.46-1.089a1.5,1.5,0,0,1,.168-1.61l2.254-2.9-2.223-2.223-2.9,2.254a1.5,1.5,0,0,1-1.61.169c-.353-.169-.721-.322-1.089-.46a1.508,1.508,0,0,1-1.027-1.257l-.46-3.634H44.436l-.46,3.634a1.508,1.508,0,0,1-1.027,1.257c-.368.138-.736.291-1.089.46a1.5,1.5,0,0,1-1.61-.169l-2.9-2.254-2.223,2.223,2.254,2.9a1.5,1.5,0,0,1,.169,1.61c-.169.353-.322.721-.46,1.089a1.508,1.508,0,0,1-1.257,1.027l-3.634.46v3.128l3.634.46a1.508,1.508,0,0,1,1.257,1.027c.138.368.291.736.46,1.089a1.5,1.5,0,0,1-.169,1.61l-2.254,2.9,2.223,2.223,2.9-2.254a1.5,1.5,0,0,1,1.61-.169ZM13.8,58.267V46a1.534,1.534,0,0,1,1.534-1.534H26.067v3.067h-9.2V58.267ZM38.334,46A7.667,7.667,0,1,1,46,53.667,7.666,7.666,0,0,1,38.334,46ZM41.4,46A4.6,4.6,0,1,0,46,41.4,4.6,4.6,0,0,0,41.4,46Zm24.533,0V42.934h4.6V30.667H73.6v13.8A1.534,1.534,0,0,1,72.067,46ZM4.6,33.733a4.613,4.613,0,0,1-4.6-4.6V4.6A4.613,4.613,0,0,1,4.6,0H23a4.614,4.614,0,0,1,4.6,4.6V29.133a4.613,4.613,0,0,1-4.6,4.6ZM3.066,4.6V29.133A1.534,1.534,0,0,0,4.6,30.667H23a1.534,1.534,0,0,0,1.533-1.534V4.6A1.534,1.534,0,0,0,23,3.066H4.6A1.534,1.534,0,0,0,3.066,4.6ZM12,28V25h3v3Zm76.934-.4H55.2a1.534,1.534,0,0,1-1.5-1.211l-1.335-6.134a1.517,1.517,0,0,1,.307-1.288,1.536,1.536,0,0,1,1.181-.568H55.2V1.534A1.534,1.534,0,0,1,56.733,0H87.4a1.534,1.534,0,0,1,1.534,1.534V18.4h1.349a1.535,1.535,0,0,1,1.181.568,1.517,1.517,0,0,1,.307,1.288l-1.335,6.134a1.534,1.534,0,0,1-1.5,1.211ZM56.426,24.533h31.28l.659-3.066h-11.7A1.534,1.534,0,0,1,75.133,23H69a1.534,1.534,0,0,1-1.534-1.534h-11.7Zm1.84-6.133H69a1.533,1.533,0,0,1,1.533,1.534H73.6A1.534,1.534,0,0,1,75.133,18.4H85.866V3.066h-27.6Zm-13.8,7.667V18.4h-13.8V15.333H46a1.534,1.534,0,0,1,1.534,1.534v9.2Z" fill="url(#linear-gradient)"/>
</svg>
