<svg xmlns="http://www.w3.org/2000/svg" width="154.777" height="32.957" viewBox="0 0 154.777 32.957">
  <g id="dhl_logo" transform="translate(-7.489 -68.4)">
    <path id="Path_1322" data-name="Path 1322" d="M75.946,93.071c1.154-2.346,2.159-4.4,2.6-5.282,2.1-4.223-.087-10.122-7.326-10.122H47.409L43.3,86.027H65.5c1.738,0,2.366.374,1.846,1.448-.507,1.05-1.616,3.295-1.918,3.908-.374.76-.531,1.686.627,1.686Z" transform="translate(-5.167 -9.267)" fill="#a5333a" fill-rule="evenodd"/>
    <path id="Path_1323" data-name="Path 1323" d="M56.977,93.857c-1.158,0-1.258-.784-.977-1.362.238-.491,1.8-3.644,2.087-4.235.374-.763.266-1.532-1.52-1.532H46.5l-7.577,15.419H58.883c5.453,0,9.423-1.978,12.125-7.479.133-.272.261-.549.389-.81H56.977Zm15.923,0-4.07,8.289h12.4L85.3,93.857Zm17.445,0-4.07,8.289h12.4l4.071-8.289Zm12.808-.784L110.7,77.667H98.3L94.2,86.027H89.158l4.1-8.36h-12.4L73.306,93.074Zm9.892-15.407h12.4l-7.57,15.407h-12.4l7.57-15.407Zm-7.955,16.19h27.76l-4.071,8.289H108.3c-4.271,0-5.652-3.254-4.127-6.417.171-.351.916-1.871.916-1.871Zm-62.976,0L40.923,96.3H11.387l1.191-2.444Zm-1.424,2.915-1.215,2.448H9.94l1.2-2.448ZM39.242,99.7l-1.2,2.443H8.5L9.711,99.7Zm124.039-5.846L162.091,96.3H132.555l1.191-2.444Zm-1.424,2.915-1.214,2.448H131.108l1.2-2.448h29.553ZM160.41,99.7l-1.2,2.443H129.673L130.88,99.7Zm-114.2,6.26a1.6,1.6,0,0,1,1.7-1.11h2.234a1.206,1.206,0,0,1,1.044,1.832c-.29.63-1.2,2.592-1.382,3a1.564,1.564,0,0,1-1.576.939H46.134c-1.237,0-1.614-1-1.173-1.96.351-.764.979-2.118,1.245-2.7Zm1.471.571c-.076.162-.98,2.145-1.109,2.418s-.073.418.337.418h1.029c.24,0,.329-.121.45-.386.091-.2.989-2.147,1.125-2.451s-.016-.313-.306-.313H48.192c-.354,0-.4.072-.514.313Zm10.373-1.68s-1.473,3.22-1.76,3.841c-.514,1.118.1,1.928.989,1.928h2.314l.565-1.252H58.372c-.563,0-.511-.277-.386-.571.16-.377,1.792-3.945,1.792-3.945Zm4.557,0h3.246c1.495,0,1.542,1.2,1.133,2.09-.3.648-.869,1.878-1.149,2.491-.378.827-.836,1.189-1.542,1.189H59.955Zm-.336,4.517H63.8a.563.563,0,0,0,.514-.386c.089-.21.876-1.913,1.029-2.243s.144-.521-.37-.521H63.718l-1.447,3.15Zm6.538,1.252H67.42v-5.769h1.51v3.279l2.169-3.279h1.286v3.279l2.185-3.279h1.607L72.3,110.623h-1.35v-3.165l-2.145,3.165Zm-29.73,0H37.69v-5.769H39.2v3.279l2.17-3.279h1.286v3.279l2.185-3.279h1.606l-3.872,5.769h-1.35v-3.165Zm37.408-5.769h1.735l-2.668,5.769H73.819Zm2.274,0h3.246c1.495,0,1.543,1.2,1.133,2.09-.3.648-.87,1.878-1.149,2.491-.378.827-.836,1.189-1.543,1.189H76.109Zm-.336,4.517H79.95a.564.564,0,0,0,.514-.386c.088-.21.875-1.913,1.028-2.243s.145-.521-.369-.521H79.872Zm6.005-.459.292-.61H87.3l.578-1.276H85.3l.353-.8h2.606l.64-1.368H84.561s-1.6,3.485-1.872,4.084a1.1,1.1,0,0,0,1.085,1.686h2.893l.659-1.373H84.641c-.313,0-.3-.145-.21-.339Z" transform="translate(-1.015 -9.267)" fill="#a5333a" fill-rule="evenodd"/>
    <path id="Path_1324" data-name="Path 1324" d="M58.171,108.537h2.764a1.41,1.41,0,0,1,1.479,1.994,1.914,1.914,0,0,1-1.7,1.462l.579,2.314H59.795l-.771-3.294h.707c.273,0,.731.056.964-.177.289-.289.321-1.011-.144-1.011H59.315l-2.075,4.483H55.5l2.667-5.77ZM97.286,112.6l.292-.61h2.579l.579-1.276h-2.58l.354-.8h2.6l.642-1.368h-4.34s-1.6,3.485-1.871,4.084a1.1,1.1,0,0,0,1.085,1.686h2.891l.659-1.373H97.5C97.185,112.933,97.2,112.789,97.286,112.6Zm2.469,1.711,3.447-3.034-1.041-2.735h1.568l.664,1.716,2.026-1.716h2.011l-3.542,3.022,1.039,2.747h-1.568l-.661-1.736-2.019,1.736Zm14.437-5.769h2.764a1.411,1.411,0,0,1,1.48,1.994,1.915,1.915,0,0,1-1.7,1.462l.578,2.314h-1.495l-.771-3.294h.707c.274,0,.731.056.963-.177.289-.289.321-1.011-.144-1.011h-1.235l-2.076,4.483h-1.736Zm-8.079,5.769,2.662-5.769h2.62c1.753,0,1.928,1.077,1.495,2.234a2.19,2.19,0,0,1-2.088,1.559h-2.05l-.987,1.976h-1.651Zm3.247-3.294h1.505a.783.783,0,0,0,.74-.675c.055-.262-.065-.514-.289-.514h-1.4l-.557,1.189Z" transform="translate(-6.623 -12.951)" fill="#a5333a" fill-rule="evenodd"/>
    <path id="Path_1325" data-name="Path 1325" d="M127.955,112.589l.292-.61h2.579l.578-1.276h-2.579l.354-.8h2.6l.642-1.368h-4.34s-1.6,3.485-1.871,4.084A1.1,1.1,0,0,0,127.3,114.3h2.893l.659-1.373h-2.683c-.312,0-.3-.145-.21-.339Zm9.44-4.058h-2.924c-1.11,0-1.431.242-1.672.661a1.879,1.879,0,0,0,.065,1.429c.22.5.53,1.173.819,1.783.129.274.24.53-.129.53H131.16l-.642,1.366h3.246a1.639,1.639,0,0,0,1.495-.9,1.615,1.615,0,0,0-.129-1.413c-.159-.37-.563-1.285-.707-1.639-.122-.3-.177-.449.129-.449h2.2l.641-1.369Zm4.637,0h-2.926c-1.108,0-1.429.242-1.67.661a1.869,1.869,0,0,0,.063,1.429c.22.5.53,1.173.821,1.783.129.274.24.53-.129.53H135.8l-.643,1.366H138.4a1.639,1.639,0,0,0,1.495-.9,1.609,1.609,0,0,0-.129-1.413c-.159-.37-.563-1.285-.707-1.639-.122-.3-.177-.449.129-.449h2.2l.642-1.369Zm2.328-.045h1.025a.591.591,0,0,1,.662.6.55.55,0,0,1-.379.581v.007c.255.05.306.247.327.471a1.232,1.232,0,0,0,.129.633H145.8c-.081-.092-.036-.341-.079-.565s-.083-.417-.363-.417h-.709v.98h-.289v-2.294h0Zm.895,1.059c.272,0,.5-.074.5-.408a.354.354,0,0,0-.388-.392h-.72v.8h.605Z" transform="translate(-15.042 -12.945)" fill="#a5333a" fill-rule="evenodd"/>
    <path id="Path_1326" data-name="Path 1326" d="M147.5,111.113a1.645,1.645,0,0,0,1.164-.48v0a1.646,1.646,0,0,0,0-2.327v0a1.646,1.646,0,0,0-2.327,0,0,0,0,0,0,0,0,1.645,1.645,0,0,0,1.164,2.808Zm1.391-.255a1.967,1.967,0,0,1-2.781,0h0a1.969,1.969,0,0,1,0-2.781h0a1.967,1.967,0,0,1,2.781,2.781Z" transform="translate(-17.365 -12.827)" fill="#a5333a"/>
  </g>
</svg>
