<svg xmlns="http://www.w3.org/2000/svg" width="170" height="57" viewBox="0 0 170 57">
  <g id="dhl" transform="translate(-5999 442)">
    <rect id="Rectangle_1413" data-name="Rectangle 1413" width="170" height="57" transform="translate(5999 -442)" fill="#fff" opacity="0"/>
    <g id="dhl_logo" transform="translate(5991.75 -499.4)">
      <path id="Path_1463" data-name="Path 1463" d="M75.946,93.071c1.154-2.346,2.159-4.4,2.6-5.282,2.1-4.223-.087-10.122-7.326-10.122H47.409L43.3,86.027H65.5c1.738,0,2.366.374,1.846,1.448-.507,1.05-1.616,3.295-1.918,3.908-.374.76-.531,1.686.627,1.686Z" transform="translate(-2.691 -9.267)" fill="#a5333a" fill-rule="evenodd"/>
      <path id="Path_1464" data-name="Path 1464" d="M59.983,94.861c-1.23,0-1.336-.832-1.037-1.447.253-.521,1.909-3.87,2.217-4.5.4-.81.282-1.627-1.614-1.627h-10.7L40.8,103.664h21.2c5.791,0,10.007-2.1,12.877-7.942.141-.289.277-.583.413-.86H59.983Zm16.91,0-4.323,8.8H85.74l4.324-8.8Zm18.527,0-4.322,8.8h13.171l4.324-8.8Zm13.6-.832,8.013-16.362H103.864l-4.348,8.879H94.159l4.349-8.879H85.336L77.324,94.029Zm10.505-16.362H132.7l-8.04,16.362H111.487l8.04-16.362Zm-8.448,17.194h29.481l-4.324,8.8H114.488c-4.536,0-6-3.456-4.383-6.815.181-.373.973-1.987.973-1.987Zm-66.881,0-1.264,2.6H11.566l1.264-2.6Zm-1.512,3.1-1.291,2.6H10.029l1.272-2.6Zm-1.537,3.113-1.278,2.594H8.5l1.282-2.594Zm131.729-6.208-1.264,2.6H140.246l1.265-2.6Zm-1.512,3.1-1.29,2.6H138.709l1.271-2.6h31.385Zm-1.537,3.113-1.279,2.594H137.185l1.282-2.594ZM48.544,107.717a1.7,1.7,0,0,1,1.8-1.178h2.373a1.281,1.281,0,0,1,1.109,1.945c-.308.669-1.273,2.753-1.467,3.184a1.661,1.661,0,0,1-1.673,1H48.468c-1.314,0-1.714-1.058-1.246-2.081.372-.812,1.04-2.249,1.322-2.867Zm1.562.606c-.08.172-1.041,2.278-1.178,2.568s-.078.444.358.444h1.092c.255,0,.35-.128.478-.41.1-.214,1.05-2.28,1.194-2.6s-.017-.332-.325-.332H50.652c-.376,0-.426.077-.546.332Zm11.016-1.785s-1.565,3.419-1.869,4.079c-.546,1.188.111,2.047,1.05,2.047H62.76l.6-1.33h-1.9c-.6,0-.542-.294-.41-.606.17-.4,1.9-4.19,1.9-4.19Zm4.839,0h3.447c1.587,0,1.638,1.273,1.2,2.219-.316.688-.923,1.995-1.221,2.645-.4.878-.888,1.263-1.638,1.263H63.145Zm-.356,4.8h1.619a.6.6,0,0,0,.546-.41c.094-.223.931-2.031,1.092-2.382s.153-.554-.393-.554H67.141L65.6,111.336Zm6.944,1.33H71.072v-6.127h1.6v3.482l2.3-3.482h1.366v3.482l2.32-3.482h1.707l-4.112,6.127H74.826V109.3l-2.278,3.361Zm-31.573,0H39.5v-6.127h1.6v3.482l2.3-3.482h1.366v3.482l2.32-3.482H48.8l-4.112,6.127H43.253V109.3ZM80.7,106.539h1.842l-2.833,6.127H77.868Zm2.415,0h3.447c1.587,0,1.639,1.273,1.2,2.219-.316.688-.924,1.995-1.221,2.645-.4.878-.888,1.263-1.639,1.263H80.3Zm-.356,4.8h1.619a.6.6,0,0,0,.546-.41c.094-.223.93-2.031,1.091-2.382s.154-.554-.392-.554H84.3Zm6.378-.487.31-.648h2.739l.614-1.355H90.061l.375-.853H93.2l.68-1.452H89.277s-1.7,3.7-1.988,4.337a1.169,1.169,0,0,0,1.152,1.79h3.072l.7-1.458H89.362c-.332,0-.315-.154-.224-.36Z" transform="translate(-1.015 -9.267)" fill="#a5333a" fill-rule="evenodd"/>
      <path id="Path_1465" data-name="Path 1465" d="M58.171,108.537h2.764a1.41,1.41,0,0,1,1.479,1.994,1.914,1.914,0,0,1-1.7,1.462l.579,2.314H59.795l-.771-3.294h.707c.273,0,.731.056.964-.177.289-.289.321-1.011-.144-1.011H59.315l-2.075,4.483H55.5l2.667-5.77ZM97.286,112.6l.292-.61h2.579l.579-1.276h-2.58l.354-.8h2.6l.642-1.368h-4.34s-1.6,3.485-1.871,4.084a1.1,1.1,0,0,0,1.085,1.686h2.891l.659-1.373H97.5C97.185,112.933,97.2,112.789,97.286,112.6Zm2.469,1.711,3.447-3.034-1.041-2.735h1.568l.664,1.716,2.026-1.716h2.011l-3.542,3.022,1.039,2.747h-1.568l-.661-1.736-2.019,1.736Zm14.437-5.769h2.764a1.411,1.411,0,0,1,1.48,1.994,1.915,1.915,0,0,1-1.7,1.462l.578,2.314h-1.495l-.771-3.294h.707c.274,0,.731.056.963-.177.289-.289.321-1.011-.144-1.011h-1.235l-2.076,4.483h-1.736Zm-8.079,5.769,2.662-5.769h2.62c1.753,0,1.928,1.077,1.495,2.234a2.19,2.19,0,0,1-2.088,1.559h-2.05l-.987,1.976h-1.651Zm3.247-3.294h1.505a.783.783,0,0,0,.74-.675c.055-.262-.065-.514-.289-.514h-1.4l-.557,1.189Z" transform="translate(-2.294 -10.908)" fill="#a5333a" fill-rule="evenodd"/>
      <path id="Path_1466" data-name="Path 1466" d="M127.955,112.589l.292-.61h2.579l.578-1.276h-2.579l.354-.8h2.6l.642-1.368h-4.34s-1.6,3.485-1.871,4.084A1.1,1.1,0,0,0,127.3,114.3h2.893l.659-1.373h-2.683c-.312,0-.3-.145-.21-.339Zm9.44-4.058h-2.924c-1.11,0-1.431.242-1.672.661a1.879,1.879,0,0,0,.065,1.429c.22.5.53,1.173.819,1.783.129.274.24.53-.129.53H131.16l-.642,1.366h3.246a1.639,1.639,0,0,0,1.495-.9,1.615,1.615,0,0,0-.129-1.413c-.159-.37-.563-1.285-.707-1.639-.122-.3-.177-.449.129-.449h2.2l.641-1.369Zm4.637,0h-2.926c-1.108,0-1.429.242-1.67.661a1.869,1.869,0,0,0,.063,1.429c.22.5.53,1.173.821,1.783.129.274.24.53-.129.53H135.8l-.643,1.366H138.4a1.639,1.639,0,0,0,1.495-.9,1.609,1.609,0,0,0-.129-1.413c-.159-.37-.563-1.285-.707-1.639-.122-.3-.177-.449.129-.449h2.2l.642-1.369Zm2.328-.045h1.025a.591.591,0,0,1,.662.6.55.55,0,0,1-.379.581v.007c.255.05.306.247.327.471a1.232,1.232,0,0,0,.129.633H145.8c-.081-.092-.036-.341-.079-.565s-.083-.417-.363-.417h-.709v.98h-.289v-2.294h0Zm.895,1.059c.272,0,.5-.074.5-.408a.354.354,0,0,0-.388-.392h-.72v.8h.605Z" transform="translate(-7.668 -10.901)" fill="#a5333a" fill-rule="evenodd"/>
      <path id="Path_1467" data-name="Path 1467" d="M147.5,111.113a1.645,1.645,0,0,0,1.164-.48v0a1.646,1.646,0,0,0,0-2.327v0a1.646,1.646,0,0,0-2.327,0,0,0,0,0,0,0,0,1.645,1.645,0,0,0,1.164,2.808Zm1.391-.255a1.967,1.967,0,0,1-2.781,0h0a1.969,1.969,0,0,1,0-2.781h0a1.967,1.967,0,0,1,2.781,2.781Z" transform="translate(-9.688 -10.784)" fill="#a5333a"/>
    </g>
  </g>
</svg>
