<svg xmlns="http://www.w3.org/2000/svg" xmlns:xlink="http://www.w3.org/1999/xlink" width="92" height="92" viewBox="0 0 92 92">
  <defs>
    <linearGradient id="linear-gradient" x1="-0.054" y1="1.076" x2="1" gradientUnits="objectBoundingBox">
      <stop offset="0" stop-color="#bf3efe"/>
      <stop offset="1" stop-color="#1b9eff"/>
    </linearGradient>
  </defs>
  <path id="explore_icon" d="M56.733,84.334V62.867a1.533,1.533,0,0,1,1.534-1.534H59.8V54.785A27.65,27.65,0,0,1,38.637,37.419l-1.99,1.329a4.6,4.6,0,1,1-8.894,0l-6.609-4.413a4.512,4.512,0,0,1-5.489,0L9.047,38.749a4.632,4.632,0,1,1-1.7-2.551l6.609-4.413a4.539,4.539,0,0,1-.154-1.118,4.6,4.6,0,0,1,9.2,0,4.539,4.539,0,0,1-.154,1.118L29.455,36.2a4.512,4.512,0,0,1,5.489,0l2.731-1.823A27.587,27.587,0,1,1,69,54.785v6.548h1.533a1.533,1.533,0,0,1,1.534,1.534V84.334a7.667,7.667,0,0,1-15.333,0Zm3.066,0a4.6,4.6,0,0,0,9.2,0V64.4H59.8Zm3.067-23h3.066V55.121c-.51.03-1.015.078-1.533.078s-1.023-.049-1.534-.078ZM41.259,35.67a23.339,23.339,0,1,0-.885-3.1l1.179-.787a4.6,4.6,0,1,1,8.894,0L57.056,36.2a4.481,4.481,0,0,1,4.715-.469L74.5,23H67.467V19.933H78.2a1.533,1.533,0,0,1,1.534,1.534V32.2H76.667V25.169L63.939,37.9a4.527,4.527,0,0,1,.462,1.97,4.6,4.6,0,0,1-9.2,0,4.545,4.545,0,0,1,.154-1.118l-6.609-4.413a4.514,4.514,0,0,1-5.49,0Zm17.008,4.2A1.533,1.533,0,1,0,59.8,38.334,1.535,1.535,0,0,0,58.267,39.866Zm-27.6,0A1.533,1.533,0,1,0,32.2,38.334,1.535,1.535,0,0,0,30.667,39.866Zm-27.6,0A1.534,1.534,0,1,0,4.6,38.334,1.535,1.535,0,0,0,3.066,39.866Zm41.4-9.2A1.534,1.534,0,1,0,46,29.133,1.535,1.535,0,0,0,44.466,30.667Zm-27.6,0A1.533,1.533,0,1,0,18.4,29.133,1.535,1.535,0,0,0,16.867,30.667ZM0,92V88.934H3.066v-23A1.533,1.533,0,0,1,4.6,64.4h7.667V50.6A1.533,1.533,0,0,1,13.8,49.066H23A1.533,1.533,0,0,1,24.533,50.6v6.134H32.2a1.532,1.532,0,0,1,1.533,1.534V64.4H41.4a1.533,1.533,0,0,1,1.534,1.533v6.134H50.6A1.533,1.533,0,0,1,52.133,73.6V88.934H55.2V92Zm42.934-3.066h6.133v-13.8H42.934Zm-9.2,0h6.133V67.467H33.733Zm-9.2,0h6.134V59.8H24.533Zm-9.2-23v23h6.134v-36.8H15.333Zm-9.2,23h6.134V67.467H6.134ZM61.1,48.815l.468-3.031A18.631,18.631,0,0,0,64.4,46,18.4,18.4,0,1,0,46.492,23.352l-2.985-.7A21.469,21.469,0,1,1,64.4,49.066,21.746,21.746,0,0,1,61.1,48.815ZM45.355,37.508l2.719-1.417a18.484,18.484,0,0,0,6.52,7.079l-1.638,2.593A21.553,21.553,0,0,1,45.355,37.508ZM13.8,21.467V18.4H33.733v3.067Zm-13.8,0V18.4H10.733v3.067Zm18.4-6.134V12.267H33.734v3.066Zm-12.266,0V12.267h9.2v3.066ZM0,15.333V12.267H3.066v3.066ZM23,9.2V6.134H33.733V9.2ZM0,9.2V6.134H19.933V9.2ZM12.267,3.066V0H33.733V3.066ZM0,3.066V0H9.2V3.066Z" fill="url(#linear-gradient)"/>
</svg>
