<?xml version="1.0" encoding="utf-8"?>
<!-- Generator: Adobe Illustrator 25.4.1, SVG Export Plug-In . SVG Version: 6.00 Build 0)  -->
<svg version="1.1" id="Layer_1" xmlns="http://www.w3.org/2000/svg" xmlns:xlink="http://www.w3.org/1999/xlink" x="0px" y="0px"
	 viewBox="0 0 54 54" style="enable-background:new 0 0 54 54;" xml:space="preserve">
<style type="text/css">
	.st0{fill:#0096D6;}
</style>
<g>
	<path class="st0" d="M54,27C54,12.1,41.9,0,27,0c-0.4,0-0.8,0-1.2,0l-5.5,15.2h4.8c2.9,0,4.4,2.2,3.4,4.9l-6.8,18.7l-5.7,0
		l7.3-20.1H19l-7.3,20.1H5.9l8.6-23.6h0L19.7,1C8.3,4.2,0,14.6,0,27c0,12.8,8.8,23.4,20.7,26.3l5-13.8h0l8.8-24.3h10.5
		c2.9,0,4.4,2.2,3.4,4.9l-6,16.4c-0.5,1.3-1.9,2.3-3.3,2.3h-7.6L26.2,54c0.3,0,0.5,0,0.8,0C41.9,54,54,41.9,54,27"/>
	<path class="st0" d="M43.3,18.7H39l-6,16.5h4.3L43.3,18.7z"/>
</g>
</svg>
