<svg id="Logo_zoomcharts" xmlns="http://www.w3.org/2000/svg" width="102.79" height="30.837" viewBox="0 0 102.79 30.837">
  <rect id="Rectangle_1272" data-name="Rectangle 1272" width="102.79" height="30.837" fill="red"/>
  <g id="Group_257" data-name="Group 257" transform="translate(7.574 6.443)">
    <path id="Path_1060" data-name="Path 1060" d="M541.219,84.885a2.551,2.551,0,0,0,.937.477,4.657,4.657,0,0,0,1.131.124,6.525,6.525,0,0,0,2.828-.654V86.6a8.226,8.226,0,0,1-2.987.566,4.46,4.46,0,0,1-3.518-1.352,6.907,6.907,0,0,1,0-7.813,4.472,4.472,0,0,1,3.518-1.352,8.011,8.011,0,0,1,2.987.566V78.99a6.269,6.269,0,0,0-2.793-.672h-.035a3.11,3.11,0,0,0-2.192.725,3.852,3.852,0,0,0-.8,2.855,6.565,6.565,0,0,0,.23,1.874,2.119,2.119,0,0,0,.689,1.114Zm12.745,2.121V80.925a2.481,2.481,0,0,0-.628-2,2.568,2.568,0,0,0-1.644-.5,6.914,6.914,0,0,0-2.51.486V87h-1.856V72.9h1.856v4.242a7.392,7.392,0,0,1,2.687-.5,3.822,3.822,0,0,1,2.943,1.131,4.564,4.564,0,0,1,1.052,3.217v6l-1.9.018Zm11.41-2.492a4,4,0,0,1-.309.831,2.705,2.705,0,0,1-.663.884,3.519,3.519,0,0,1-1.255.654,6.127,6.127,0,0,1-1.936.274,6.308,6.308,0,0,1-1.971-.283,3.843,3.843,0,0,1-1.273-.663,2.961,2.961,0,0,1-.681-.9,3.3,3.3,0,0,1-.309-.857,3.524,3.524,0,0,1-.062-.672,2.684,2.684,0,0,1,1.273-2.36,6.262,6.262,0,0,1,3.509-.848,13.993,13.993,0,0,1,1.847.124,2.531,2.531,0,0,0-.7-1.847,3.162,3.162,0,0,0-2.095-.557,8.545,8.545,0,0,0-2.811.513V77.2a8.618,8.618,0,0,1,3.067-.548,4.57,4.57,0,0,1,3.279,1.1,4.178,4.178,0,0,1,1.158,3.164v2.943a4,4,0,0,1-.071.645Zm-1.83-2.324a12.15,12.15,0,0,0-1.768-.133,5.681,5.681,0,0,0-.849.071,7.908,7.908,0,0,0-.963.23,1.891,1.891,0,0,0-.848.521,1.275,1.275,0,0,0-.336.875q0,1.723,2.439,1.723h.027c1.529,0,2.3-.548,2.3-1.653V82.189Zm5.126-3.394v8.211h-1.856V77.673a13.223,13.223,0,0,1,4.949-1.016v1.715a12.588,12.588,0,0,0-3.093.424Zm8.529,6.691h.018a2.205,2.205,0,0,0,1.184-.3v1.688a3.708,3.708,0,0,1-1.388.283h-.053a3.634,3.634,0,0,1-.787-.088,5.3,5.3,0,0,1-1-.354,2.075,2.075,0,0,1-.955-.919,3.22,3.22,0,0,1-.38-1.617V78.4h-1.768V76.8h1.768V73.784H575.7v3.023h2.7v1.6h-2.7v5.9c0,.787.5,1.184,1.5,1.184Zm4.5-5.144a6.685,6.685,0,0,0,1.29.495,14.574,14.574,0,0,1,1.511.521,3.05,3.05,0,0,1,1.3,1.016,2.842,2.842,0,0,1,.539,1.768,2.892,2.892,0,0,1-.919,2.13,3.975,3.975,0,0,1-2.855.893,5.952,5.952,0,0,1-2.926-.716V84.743a5.666,5.666,0,0,0,2.811.742h.044a2.6,2.6,0,0,0,1.485-.354,1.06,1.06,0,0,0,.513-.9,1.189,1.189,0,0,0-.53-1.008,4.209,4.209,0,0,0-1.3-.6c-.513-.141-1.016-.3-1.52-.477a3,3,0,0,1-1.29-.875,2.337,2.337,0,0,1-.53-1.591,2.924,2.924,0,0,1,.9-2.157,3.765,3.765,0,0,1,2.749-.884,5.947,5.947,0,0,1,2.713.672v1.617a5.917,5.917,0,0,0-2.484-.61q-2.015,0-2.015,1.3c-.026.3.159.53.513.725Z" transform="translate(-498.389 -72.9)" fill="#fff"/>
    <path id="Path_1061" data-name="Path 1061" d="M242.987,196.435a4.149,4.149,0,0,1-4.128,4.128c-.009,0,0-4.163,0-4.163.044.044,4.128.027,4.128.035Z" transform="translate(-225.319 -185.485)" fill="#fff"/>
    <path id="Path_1062" data-name="Path 1062" d="M123.086,95.226V88.544a2.21,2.21,0,0,0-.424-1.414,2.042,2.042,0,0,0-1.67-.539,7.09,7.09,0,0,0-2.722.566,4.206,4.206,0,0,1,.239,1.458v6.62h-1.856V88.571a2.037,2.037,0,0,0-.468-1.414,2.537,2.537,0,0,0-1.874-.521,8.495,8.495,0,0,0-2.218.309v8.29h-1.856v-4.1a5.443,5.443,0,0,1-3.04,1.8,5.537,5.537,0,0,1-1.564.106,6.631,6.631,0,0,1-12.391,2.192H85.7V93.5l5.162-6.744H85.815V85.044h7.424v1.7L88.1,93.467h4.481c0-.018-.009-.035-.009-.053a6.655,6.655,0,0,1,8.282-7.822,5.517,5.517,0,0,1,10.35-.133,9.082,9.082,0,0,1,3.244-.592,4.52,4.52,0,0,1,2.713.769,9.947,9.947,0,0,1,3.721-.769,4.208,4.208,0,0,1,3,1.008,3.669,3.669,0,0,1,1.078,2.811v6.558l-1.865-.018ZM106.125,83.6a3.927,3.927,0,0,0-3.924,3.924,4.475,4.475,0,0,0,.044.6,4.957,4.957,0,1,0,1.953,3.942,5.066,5.066,0,0,0-.15-1.22,3.92,3.92,0,1,0,2.077-7.247Z" transform="translate(-85.7 -81.12)" fill="#fff"/>
    <g id="Group_256" data-name="Group 256" transform="translate(87.932 3.977)">
      <path id="Path_1063" data-name="Path 1063" d="M1081.811,117.9a1.211,1.211,0,1,0,1.211,1.211A1.213,1.213,0,0,0,1081.811,117.9Zm0,2.174a.963.963,0,1,1,.963-.963A.966.966,0,0,1,1081.811,120.074Z" transform="translate(-1080.6 -117.9)" fill="#fff"/>
      <path id="Path_1064" data-name="Path 1064" d="M1089.248,124.842a.219.219,0,0,0-.124-.071.392.392,0,0,0,.186-.115.309.309,0,0,0,.062-.2.292.292,0,0,0-.115-.265.662.662,0,0,0-.362-.088h-.495v1.264h.327v-.477h.088a.173.173,0,0,1,.124.035.43.43,0,0,1,.1.133l.159.318h.345l-.177-.362A.765.765,0,0,0,1089.248,124.842Zm-.247-.221a.221.221,0,0,1-.15.035h-.133v-.327h.141a.237.237,0,0,1,.15.035.175.175,0,0,1,.044.124C1089.045,124.56,1089.036,124.595,1089,124.621Z" transform="translate(-1087.71 -123.552)" fill="#fff"/>
    </g>
  </g>
</svg>
