<svg id="Logo_zoomcharts" xmlns="http://www.w3.org/2000/svg" width="164.444" height="49.333" viewBox="0 0 164.444 49.333">
  <rect id="Rectangle_1272" data-name="Rectangle 1272" width="164.444" height="49.333" fill="red"/>
  <g id="Group_257" data-name="Group 257" transform="translate(12.118 10.308)">
    <path id="Path_1060" data-name="Path 1060" d="M542.911,92.073a4.08,4.08,0,0,0,1.5.764,7.451,7.451,0,0,0,1.81.2,10.439,10.439,0,0,0,4.525-1.046v2.828a13.159,13.159,0,0,1-4.779.9,7.135,7.135,0,0,1-5.628-2.163,9.087,9.087,0,0,1-1.937-6.25c0-2.729.65-4.822,1.937-6.25a7.155,7.155,0,0,1,5.628-2.163,12.815,12.815,0,0,1,4.779.9v2.842a10.029,10.029,0,0,0-4.468-1.075h-.057a4.975,4.975,0,0,0-3.507,1.159c-.848.778-1.273,2.291-1.273,4.567a10.5,10.5,0,0,0,.368,3,3.39,3.39,0,0,0,1.1,1.782ZM563.3,95.467V85.739c0-1.6-.339-2.672-1-3.2a4.109,4.109,0,0,0-2.63-.806,11.061,11.061,0,0,0-4.016.778V95.453h-2.969V72.9h2.969v6.787a11.827,11.827,0,0,1,4.3-.806,6.115,6.115,0,0,1,4.708,1.81,7.3,7.3,0,0,1,1.683,5.147v9.6l-3.04.028Zm18.254-3.987a6.4,6.4,0,0,1-.495,1.329A4.328,4.328,0,0,1,580,94.223a5.63,5.63,0,0,1-2.008,1.046,9.8,9.8,0,0,1-3.1.438,10.092,10.092,0,0,1-3.153-.452,6.15,6.15,0,0,1-2.036-1.06,4.738,4.738,0,0,1-1.089-1.442,5.289,5.289,0,0,1-.495-1.372,5.631,5.631,0,0,1-.1-1.075,4.294,4.294,0,0,1,2.036-3.775,10.017,10.017,0,0,1,5.613-1.357,22.385,22.385,0,0,1,2.955.2,4.048,4.048,0,0,0-1.117-2.955,5.059,5.059,0,0,0-3.351-.891,13.67,13.67,0,0,0-4.5.82V79.786a13.787,13.787,0,0,1,4.906-.877,7.311,7.311,0,0,1,5.246,1.767,6.685,6.685,0,0,1,1.852,5.062v4.709a6.4,6.4,0,0,1-.113,1.032Zm-2.927-3.719a19.439,19.439,0,0,0-2.828-.212,9.089,9.089,0,0,0-1.357.113,12.648,12.648,0,0,0-1.541.368,3.027,3.027,0,0,0-1.357.834,2.04,2.04,0,0,0-.537,1.4q0,2.757,3.9,2.757h.042c2.446,0,3.676-.877,3.676-2.644V87.761Zm8.2-5.43V95.467h-2.969V80.535a21.154,21.154,0,0,1,7.918-1.626v2.743a20.139,20.139,0,0,0-4.949.679Zm13.645,10.7h.028a3.528,3.528,0,0,0,1.895-.481v2.7a5.933,5.933,0,0,1-2.22.452h-.085a5.815,5.815,0,0,1-1.258-.141,8.485,8.485,0,0,1-1.6-.566,3.319,3.319,0,0,1-1.527-1.471,5.15,5.15,0,0,1-.608-2.588V81.695h-2.828V79.136H595.1V74.314h2.969V79.15H602.4v2.559h-4.327V91.14c0,1.258.806,1.895,2.4,1.895Zm7.2-8.229a10.694,10.694,0,0,0,2.064.792,23.318,23.318,0,0,1,2.418.834,4.878,4.878,0,0,1,2.079,1.626,4.547,4.547,0,0,1,.862,2.828,4.626,4.626,0,0,1-1.471,3.408,6.36,6.36,0,0,1-4.567,1.428,9.522,9.522,0,0,1-4.68-1.145V91.847a9.064,9.064,0,0,0,4.5,1.188h.071a4.154,4.154,0,0,0,2.375-.566,1.7,1.7,0,0,0,.82-1.442,1.9,1.9,0,0,0-.848-1.612,6.734,6.734,0,0,0-2.079-.961c-.82-.226-1.626-.481-2.432-.764a4.8,4.8,0,0,1-2.064-1.4,3.739,3.739,0,0,1-.848-2.545,4.678,4.678,0,0,1,1.442-3.45,6.022,6.022,0,0,1,4.4-1.414,9.515,9.515,0,0,1,4.341,1.075v2.588a9.467,9.467,0,0,0-3.973-.976q-3.224,0-3.224,2.079c-.042.481.255.848.82,1.159Z" transform="translate(-474.39 -72.9)" fill="#fff"/>
    <path id="Path_1061" data-name="Path 1061" d="M245.465,196.457a6.638,6.638,0,0,1-6.6,6.6c-.014,0,0-6.66,0-6.66.071.071,6.6.042,6.6.057Z" transform="translate(-217.2 -178.938)" fill="#fff"/>
    <path id="Path_1062" data-name="Path 1062" d="M145.511,103.209V92.519a3.535,3.535,0,0,0-.679-2.262,3.267,3.267,0,0,0-2.672-.863,11.343,11.343,0,0,0-4.355.9,6.729,6.729,0,0,1,.382,2.333v10.591h-2.969V92.562a3.258,3.258,0,0,0-.749-2.262,4.059,4.059,0,0,0-3-.834,13.59,13.59,0,0,0-3.549.495v13.263h-2.969V96.662a8.708,8.708,0,0,1-4.864,2.884,8.859,8.859,0,0,1-2.5.17,10.608,10.608,0,0,1-19.824,3.507H85.7v-2.771l8.258-10.789H85.884V86.92H97.761v2.715L89.532,100.4H96.7c0-.028-.014-.057-.014-.085A10.647,10.647,0,0,1,109.935,87.8a8.826,8.826,0,0,1,16.558-.212,14.53,14.53,0,0,1,5.189-.947,7.232,7.232,0,0,1,4.341,1.23,15.914,15.914,0,0,1,5.953-1.23,6.732,6.732,0,0,1,4.793,1.612,5.869,5.869,0,0,1,1.725,4.5v10.492l-2.983-.028ZM118.377,84.615a6.282,6.282,0,0,0-6.278,6.278,7.156,7.156,0,0,0,.071.962,7.93,7.93,0,1,0,3.125,6.306,8.1,8.1,0,0,0-.24-1.951,6.271,6.271,0,1,0,3.323-11.595Z" transform="translate(-85.7 -80.642)" fill="#fff"/>
    <g id="Group_256" data-name="Group 256" transform="translate(140.676 6.363)">
      <path id="Path_1063" data-name="Path 1063" d="M1082.537,117.9a1.937,1.937,0,1,0,1.937,1.937A1.94,1.94,0,0,0,1082.537,117.9Zm0,3.478a1.541,1.541,0,1,1,1.541-1.541A1.545,1.545,0,0,1,1082.537,121.378Z" transform="translate(-1080.6 -117.9)" fill="#fff"/>
      <path id="Path_1064" data-name="Path 1064" d="M1089.757,125.288a.351.351,0,0,0-.2-.113.628.628,0,0,0,.3-.184.5.5,0,0,0,.1-.325.468.468,0,0,0-.184-.424,1.058,1.058,0,0,0-.58-.141h-.792v2.022h.523v-.764h.141a.277.277,0,0,1,.2.057.686.686,0,0,1,.156.212l.255.509h.551l-.283-.58A1.223,1.223,0,0,0,1089.757,125.288Zm-.4-.353a.354.354,0,0,1-.24.057h-.212v-.523h.226a.378.378,0,0,1,.24.057.279.279,0,0,1,.071.2C1089.432,124.835,1089.418,124.892,1089.361,124.934Z" transform="translate(-1087.297 -123.223)" fill="#fff"/>
    </g>
  </g>
</svg>
