<svg xmlns="http://www.w3.org/2000/svg" xmlns:xlink="http://www.w3.org/1999/xlink" width="190" height="35" viewBox="0 0 190 35">
  <defs>
    <clipPath id="clip-path">
      <rect id="Rectangle_1366" data-name="Rectangle 1366" width="190" height="35" transform="translate(0 0.493)" fill="none"/>
    </clipPath>
    <clipPath id="clip-path-2">
      <path id="Path_1434" data-name="Path 1434" d="M0,0V35.8H189.517V0" fill="none"/>
    </clipPath>
  </defs>
  <g id="Layer_2" data-name="Layer 2" transform="translate(0 -0.827)">
    <g id="Layer_1" data-name="Layer 1" transform="translate(0 0.333)">
      <g id="Group_392" data-name="Group 392" clip-path="url(#clip-path)">
        <g id="Group_391" data-name="Group 391" transform="translate(0 -0.311)" clip-path="url(#clip-path-2)">
          <path id="Path_1412" data-name="Path 1412" d="M19.007,45.909H16.822V33.384q0-1.482.179-3.611h-.049a12.494,12.494,0,0,1-.556,1.809L10.044,45.909H8.976l-6.365-14.2A11.062,11.062,0,0,1,2.05,29.8H2c.068.747.1,1.957.1,3.642V45.909H0V27.26H2.883L8.6,40.267a16.735,16.735,0,0,1,.846,2.266h.093c.432-1.2.728-1.957.9-2.29l5.834-12.964h2.741V45.909" transform="translate(0 -10.432)"/>
          <path id="Path_1413" data-name="Path 1413" d="M39.466,27.312a1.321,1.321,0,0,1-.42.994,1.377,1.377,0,0,1-.988.4,1.4,1.4,0,0,1-.988-.383,1.333,1.333,0,0,1-.4-1.006,1.358,1.358,0,0,1,.4-.969,1.321,1.321,0,0,1,.994-.414,1.34,1.34,0,0,1,1,.407,1.315,1.315,0,0,1,.407.975M39.1,45.4h-2.13V32.084H39.1V45.4" transform="translate(-14.032 -9.923)"/>
          <path id="Path_1414" data-name="Path 1414" d="M54.826,48.4a6.92,6.92,0,0,1-3.63.938,6.371,6.371,0,0,1-3.266-.84,5.834,5.834,0,0,1-2.253-2.371,7.315,7.315,0,0,1-.8-3.451,7.408,7.408,0,0,1,1.889-5.3,6.581,6.581,0,0,1,5.031-2.006,6.753,6.753,0,0,1,3.087.679v2.179a5.445,5.445,0,0,0-3.173-1.043,4.266,4.266,0,0,0-3.358,1.475,5.611,5.611,0,0,0-1.29,3.821,5.26,5.26,0,0,0,1.235,3.7,4.216,4.216,0,0,0,3.29,1.352,5.414,5.414,0,0,0,3.241-1.161V48.4" transform="translate(-17.169 -13.531)"/>
          <path id="Path_1415" data-name="Path 1415" d="M72.113,37.913a2.624,2.624,0,0,0-1.624-.432,2.655,2.655,0,0,0-2.3,1.333,6.173,6.173,0,0,0-.883,3.469v6.791H65.18V35.753h2.13v2.741h.049a4.747,4.747,0,0,1,1.364-2.179,3.148,3.148,0,0,1,2.117-.8,3.543,3.543,0,0,1,1.272.179v2.216" transform="translate(-24.943 -13.591)"/>
          <path id="Path_1416" data-name="Path 1416" d="M89.979,42.319a7.186,7.186,0,0,1-1.8,5.105,6.272,6.272,0,0,1-4.827,1.932,6.173,6.173,0,0,1-4.71-1.852,6.957,6.957,0,0,1-1.759-4.939,7.3,7.3,0,0,1,1.809-5.223,6.5,6.5,0,0,1,4.976-1.92,5.932,5.932,0,0,1,4.636,1.852,7.262,7.262,0,0,1,1.673,5.081m-2.179.08a5.9,5.9,0,0,0-1.111-3.852,3.9,3.9,0,0,0-3.179-1.34,4.093,4.093,0,0,0-3.247,1.37,5.729,5.729,0,0,0-1.191,3.871,5.432,5.432,0,0,0,1.2,3.741,4.136,4.136,0,0,0,3.241,1.346A3.908,3.908,0,0,0,86.7,46.246a5.815,5.815,0,0,0,1.1-3.809" transform="translate(-29.42 -13.552)"/>
          <path id="Path_1417" data-name="Path 1417" d="M109.067,45.46a3.451,3.451,0,0,1-1.315,2.809,5.445,5.445,0,0,1-3.556,1.08,6.556,6.556,0,0,1-3.3-.809V46.262a5.383,5.383,0,0,0,3.457,1.272q2.525,0,2.531-1.852a1.63,1.63,0,0,0-.494-1.235,9.259,9.259,0,0,0-2.247-1.272,6.63,6.63,0,0,1-2.469-1.617A3.7,3.7,0,0,1,102.3,36.5,5.074,5.074,0,0,1,105.66,35.4a6.389,6.389,0,0,1,2.84.617v2.148a4.939,4.939,0,0,0-3.013-.951,2.611,2.611,0,0,0-1.691.519,1.648,1.648,0,0,0-.617,1.34,1.8,1.8,0,0,0,.494,1.364,7.3,7.3,0,0,0,2.037,1.124,7.284,7.284,0,0,1,2.661,1.691,3.253,3.253,0,0,1,.765,2.222" transform="translate(-38.612 -13.544)"/>
          <path id="Path_1418" data-name="Path 1418" d="M129.559,42.32a7.192,7.192,0,0,1-1.8,5.105,6.272,6.272,0,0,1-4.827,1.932,6.136,6.136,0,0,1-4.7-1.852,6.957,6.957,0,0,1-1.759-4.939,7.31,7.31,0,0,1,1.8-5.223,6.513,6.513,0,0,1,4.976-1.92,5.932,5.932,0,0,1,4.636,1.852,7.283,7.283,0,0,1,1.679,5.081m-2.185.08a5.9,5.9,0,0,0-1.111-3.852,3.9,3.9,0,0,0-3.173-1.34,4.08,4.08,0,0,0-3.247,1.37,5.7,5.7,0,0,0-1.2,3.834,5.408,5.408,0,0,0,1.235,3.741,4.118,4.118,0,0,0,3.241,1.346,3.908,3.908,0,0,0,3.179-1.327A5.815,5.815,0,0,0,127.4,42.4" transform="translate(-44.567 -13.553)"/>
          <path id="Path_1419" data-name="Path 1419" d="M146.827,27.237a2.827,2.827,0,0,0-1.414-.352q-2.229,0-2.235,2.821v2.056h3.087V33.57h-3.087V45.077h-2.13V33.57H138.79V31.762h2.259V29.6a4.543,4.543,0,0,1,1.191-3.278,4.031,4.031,0,0,1,3.043-1.235,4.2,4.2,0,0,1,1.543.235v1.926" transform="translate(-53.112 -9.6)"/>
          <path id="Path_1420" data-name="Path 1420" d="M159.536,46.641a4.037,4.037,0,0,1-2,.432q-3.482,0-3.482-3.932V35.263H151.77V33.455h2.284V30.2l2.13-.691v3.945h3.352v1.809h-3.352v7.513a3.086,3.086,0,0,0,.457,1.9,1.852,1.852,0,0,0,1.519.568,2.247,2.247,0,0,0,1.377-.432v1.821" transform="translate(-58.079 -11.293)"/>
          <path id="Path_1421" data-name="Path 1421" d="M188.7,32.828a5.556,5.556,0,0,1-1.852,4.364,7.1,7.1,0,0,1-4.9,1.636h-2.469v7.081H177.3V27.26h5.118a6.75,6.75,0,0,1,4.636,1.463,5.223,5.223,0,0,1,1.642,4.105m-2.29.117q0-3.7-4.364-3.7h-2.556v7.642h2.284a5.167,5.167,0,0,0,3.445-1.019,3.63,3.63,0,0,0,1.191-2.92" transform="translate(-67.849 -10.432)"/>
          <path id="Path_1422" data-name="Path 1422" d="M207.247,49h-2.136v-2.08h-.049a4.457,4.457,0,0,1-4.093,2.408,4.4,4.4,0,0,1-3.087-1.049,3.605,3.605,0,0,1-1.154-2.815q0-3.7,4.389-4.321l3.988-.562q0-3.377-2.741-3.383a6.556,6.556,0,0,0-4.321,1.63v-2.2a6.4,6.4,0,0,1,1.994-.877,9.038,9.038,0,0,1,2.519-.414q4.685,0,4.692,4.982v8.642m-2.136-6.735-3.216.457a4.79,4.79,0,0,0-2.315.784,2.2,2.2,0,0,0-.661,1.79,1.994,1.994,0,0,0,.71,1.605,2.76,2.76,0,0,0,1.852.617,3.4,3.4,0,0,0,2.617-1.117,3.957,3.957,0,0,0,1.031-2.8v-1.3" transform="translate(-75.282 -13.52)"/>
          <path id="Path_1423" data-name="Path 1423" d="M226.129,37.913a2.852,2.852,0,0,0-3.926.9,6.173,6.173,0,0,0-.883,3.469v6.791h-2.13V35.753h2.13v2.741h.049a4.8,4.8,0,0,1,1.364-2.179,3.148,3.148,0,0,1,2.117-.8,3.605,3.605,0,0,1,1.278.179v2.216" transform="translate(-83.88 -13.591)"/>
          <path id="Path_1424" data-name="Path 1424" d="M241.692,46.641a4.037,4.037,0,0,1-2,.432q-3.482,0-3.482-3.932V35.263h-2.29V33.455h2.29V30.2l2.13-.691v3.945h3.352v1.809H238.34v7.513a3.087,3.087,0,0,0,.451,1.9,1.852,1.852,0,0,0,1.525.568,2.247,2.247,0,0,0,1.377-.432v1.821" transform="translate(-89.517 -11.293)"/>
          <path id="Path_1425" data-name="Path 1425" d="M262.378,49.008h-2.13V41.415q0-4.235-3.087-4.229a3.364,3.364,0,0,0-2.63,1.191,4.371,4.371,0,0,0-1.062,3.037v7.593h-2.13V35.692h2.13V37.9h.056a4.772,4.772,0,0,1,4.365-2.537,4.037,4.037,0,0,1,3.34,1.432,6.309,6.309,0,0,1,1.154,4.056v8.155" transform="translate(-96.183 -13.531)"/>
          <path id="Path_1426" data-name="Path 1426" d="M284.6,42.885H275.21a4.938,4.938,0,0,0,1.185,3.438,4.148,4.148,0,0,0,3.154,1.191,6.531,6.531,0,0,0,4.118-1.457v1.988a7.606,7.606,0,0,1-4.624,1.29,5.556,5.556,0,0,1-4.445-1.852A7.518,7.518,0,0,1,273,42.4a8.075,8.075,0,0,1,.8-3.611,6.074,6.074,0,0,1,2.2-2.525,5.673,5.673,0,0,1,3.117-.9,5.05,5.05,0,0,1,4.037,1.685,7.025,7.025,0,0,1,1.445,4.716v1.117m-2.179-1.809a4.419,4.419,0,0,0-.889-2.852,3.012,3.012,0,0,0-2.438-1.025,3.426,3.426,0,0,0-2.531,1.068,4.939,4.939,0,0,0-1.327,2.821h7.186" transform="translate(-104.471 -13.531)"/>
          <path id="Path_1427" data-name="Path 1427" d="M302.7,37.913a2.84,2.84,0,0,0-3.92.9,6.173,6.173,0,0,0-.889,3.469v6.791h-2.13V35.753h2.13v2.741h.056a4.747,4.747,0,0,1,1.364-2.179,3.148,3.148,0,0,1,2.117-.8,3.568,3.568,0,0,1,1.272.179v2.216" transform="translate(-113.182 -13.591)"/>
          <path id="Path_1428" data-name="Path 1428" d="M5.447,7.734A2.241,2.241,0,0,1,4.62,9.586a3.519,3.519,0,0,1-2.259.667A4.494,4.494,0,0,1,1.187,10.1a3.05,3.05,0,0,1-.926-.358V8.45A3.179,3.179,0,0,0,1.3,9.067a3.445,3.445,0,0,0,1.235.241c1.191,0,1.79-.463,1.79-1.4a1.426,1.426,0,0,0-.383-1.006,7.216,7.216,0,0,0-1.6-1.124A5.4,5.4,0,0,1,.712,4.549a2.216,2.216,0,0,1-.463-1.42A2.229,2.229,0,0,1,1.1,1.3,3.192,3.192,0,0,1,3.231.6,3.8,3.8,0,0,1,5.083.937V2.172a2.945,2.945,0,0,0-1.9-.586,1.994,1.994,0,0,0-1.266.389A1.235,1.235,0,0,0,1.428,3a1.58,1.58,0,0,0,.148.741,1.667,1.667,0,0,0,.494.549,9.4,9.4,0,0,0,1.173.735,6.173,6.173,0,0,1,1.728,1.3,2.179,2.179,0,0,1,.488,1.407" transform="translate(-0.095 -0.227)"/>
          <path id="Path_1429" data-name="Path 1429" d="M13.135.892a.617.617,0,0,1-.21.494.673.673,0,0,1-.494.2.691.691,0,0,1-.494-.191.667.667,0,0,1-.2-.5.679.679,0,0,1,.2-.488.71.71,0,0,1,.994,0,.654.654,0,0,1,.2.488m-.173,9.062H11.9V3.275h1.068V9.954" transform="translate(-4.492 -0.077)"/>
          <path id="Path_1430" data-name="Path 1430" d="M18.812,9.859H17.75V0h1.062V9.859" transform="translate(-6.793)"/>
          <path id="Path_1431" data-name="Path 1431" d="M28.139,5.176l-2.667,6.679H24.435L21.91,5.176h1.173L24.774,10a5.451,5.451,0,0,1,.216.938h.062a4.229,4.229,0,0,1,.2-.907L27.028,5.17h1.111" transform="translate(-8.385 -1.978)"/>
          <path id="Path_1432" data-name="Path 1432" d="M39.351,8.679h-4.7a2.469,2.469,0,0,0,.617,1.716,2.049,2.049,0,0,0,1.574.617,3.272,3.272,0,0,0,2.056-.728v.994a3.778,3.778,0,0,1-2.309.617,2.772,2.772,0,0,1-2.222-.92,3.759,3.759,0,0,1-.8-2.543,4.093,4.093,0,0,1,.4-1.809,3.05,3.05,0,0,1,1.1-1.235,2.815,2.815,0,0,1,1.562-.451,2.525,2.525,0,0,1,2.019.84,3.519,3.519,0,0,1,.722,2.358v.543m-1.111-.9a2.179,2.179,0,0,0-.444-1.432,1.512,1.512,0,0,0-1.235-.512,1.7,1.7,0,0,0-1.235.537,2.469,2.469,0,0,0-.667,1.407H38.27" transform="translate(-12.843 -1.888)"/>
          <path id="Path_1433" data-name="Path 1433" d="M49.469,6.191a1.426,1.426,0,0,0-1.963.451,3.13,3.13,0,0,0-.438,1.735V11.79H46V5.11h1.068V6.487h0a2.34,2.34,0,0,1,.685-1.093,1.556,1.556,0,0,1,1.08-.4,1.71,1.71,0,0,1,.617.093v1.1" transform="translate(-17.603 -1.913)"/>
        </g>
      </g>
    </g>
  </g>
</svg>
