<svg xmlns="http://www.w3.org/2000/svg" width="140.522" height="30" viewBox="0 0 140.522 30">
  <g id="microsoft_logo" transform="translate(0 -0.137)">
    <path id="Path_1071" data-name="Path 1071" d="M795.152,92.457V89.986h-3.069V86.144l-.1.032-2.883.882-.057.017v2.911h-4.55V88.365a2.576,2.576,0,0,1,.5-1.718,1.769,1.769,0,0,1,1.406-.574,3.275,3.275,0,0,1,1.334.3l.113.051v-2.6l-.053-.02a5.2,5.2,0,0,0-1.7-.228,5,5,0,0,0-2.418.581,4.133,4.133,0,0,0-1.659,1.64,4.889,4.889,0,0,0-.588,2.406v1.783h-2.137v2.471h2.137v10.411h3.068V92.457h4.55v6.616c0,2.725,1.285,4.106,3.82,4.106a6.268,6.268,0,0,0,1.3-.144,3.6,3.6,0,0,0,.949-.3l.04-.024v-2.494l-.125.083a2.149,2.149,0,0,1-.617.269,2.344,2.344,0,0,1-.606.1,1.643,1.643,0,0,1-1.306-.476,2.561,2.561,0,0,1-.416-1.655V92.457Zm-22.716,8.213a3.254,3.254,0,0,1-2.61-1.1,4.657,4.657,0,0,1-.938-3.1,4.84,4.84,0,0,1,.938-3.179,3.2,3.2,0,0,1,2.585-1.114,3.154,3.154,0,0,1,2.517,1.065,4.745,4.745,0,0,1,.919,3.153,5.06,5.06,0,0,1-.865,3.192,3.077,3.077,0,0,1-2.546,1.076m.136-11a6.728,6.728,0,0,0-5.015,1.85,6.937,6.937,0,0,0-1.812,5.05,6.57,6.57,0,0,0,1.769,4.821,6.416,6.416,0,0,0,4.747,1.781,6.544,6.544,0,0,0,4.915-1.876,6.919,6.919,0,0,0,1.811-5,6.749,6.749,0,0,0-1.7-4.857,6.259,6.259,0,0,0-4.717-1.77m-11.772,0a5.546,5.546,0,0,0-3.553,1.1,3.5,3.5,0,0,0-1.385,2.858,4,4,0,0,0,.3,1.6,3.21,3.21,0,0,0,.917,1.2,7.979,7.979,0,0,0,1.865,1.043,13.89,13.89,0,0,1,1.551.722,2.156,2.156,0,0,1,.683.561,1.259,1.259,0,0,1,.19.73c0,.866-.648,1.287-1.982,1.287a5.447,5.447,0,0,1-1.677-.307,6.3,6.3,0,0,1-1.717-.871l-.127-.091v2.953l.047.022a7.6,7.6,0,0,0,1.626.5,8.727,8.727,0,0,0,1.737.2,5.888,5.888,0,0,0,3.752-1.1,3.573,3.573,0,0,0,1.4-2.926,3.365,3.365,0,0,0-.752-2.214,6.442,6.442,0,0,0-2.554-1.626,6.585,6.585,0,0,1-1.819-.946,1.324,1.324,0,0,1-.367-.992,1.105,1.105,0,0,1,.466-.918,2.092,2.092,0,0,1,1.305-.368,5.344,5.344,0,0,1,1.554.239,5,5,0,0,1,1.357.629l.125.086v-2.8l-.048-.021a6.691,6.691,0,0,0-1.378-.384,8.413,8.413,0,0,0-1.511-.156m-12.935,11a3.254,3.254,0,0,1-2.61-1.1,4.655,4.655,0,0,1-.937-3.1,4.839,4.839,0,0,1,.938-3.179,3.2,3.2,0,0,1,2.584-1.114,3.154,3.154,0,0,1,2.517,1.065,4.745,4.745,0,0,1,.919,3.153,5.06,5.06,0,0,1-.865,3.192,3.076,3.076,0,0,1-2.546,1.076m.137-11a6.727,6.727,0,0,0-5.014,1.85,6.938,6.938,0,0,0-1.812,5.05,6.568,6.568,0,0,0,1.769,4.821,6.416,6.416,0,0,0,4.747,1.781,6.545,6.545,0,0,0,4.915-1.876,6.919,6.919,0,0,0,1.811-5,6.748,6.748,0,0,0-1.7-4.857A6.259,6.259,0,0,0,748,89.676m-11.483,2.541V89.986h-3.03v12.882h3.03v-6.59a4.593,4.593,0,0,1,.755-2.736,2.317,2.317,0,0,1,1.96-1.035,3.56,3.56,0,0,1,.911.134,2.3,2.3,0,0,1,.706.286l.128.092V89.964l-.049-.021a3.137,3.137,0,0,0-1.187-.18,3.1,3.1,0,0,0-2.027.726,4.1,4.1,0,0,0-1.166,1.728Zm-8.457-2.541a7.48,7.48,0,0,0-3.685.886,5.969,5.969,0,0,0-2.43,2.5,7.959,7.959,0,0,0-.835,3.7,6.83,6.83,0,0,0,.811,3.319,5.7,5.7,0,0,0,2.267,2.293,6.75,6.75,0,0,0,3.313.805,7.254,7.254,0,0,0,3.655-.856l.04-.023V99.524l-.127.093a5.7,5.7,0,0,1-1.482.772,4.481,4.481,0,0,1-1.452.281,3.731,3.731,0,0,1-2.836-1.106,4.3,4.3,0,0,1-1.046-3.064,4.461,4.461,0,0,1,1.091-3.144,3.711,3.711,0,0,1,2.842-1.173,4.867,4.867,0,0,1,2.885,1l.127.092V90.355l-.041-.023a5,5,0,0,0-1.4-.474,8.375,8.375,0,0,0-1.694-.182m-9.037.31h-3.03v12.882h3.03V89.986ZM717.541,84.5A1.826,1.826,0,0,0,716.25,85a1.67,1.67,0,0,0-.541,1.264,1.623,1.623,0,0,0,.535,1.239,1.846,1.846,0,0,0,1.3.493,1.869,1.869,0,0,0,1.3-.493,1.617,1.617,0,0,0,.542-1.239,1.7,1.7,0,0,0-.527-1.25,1.808,1.808,0,0,0-1.318-.52m-7.561,4.537v13.832h3.093V84.893h-4.28l-5.44,13.352-5.28-13.352h-4.454v17.975h2.906V89.034h.1l5.575,13.834h2.193l5.488-13.832Z" transform="translate(-654.631 -78.749)" fill="#706d6e"/>
    <path id="Path_1072" data-name="Path 1072" d="M14.255,14.392H0V.137H14.255Z" fill="#f1511b"/>
    <path id="Path_1073" data-name="Path 1073" d="M294.275,14.392H280.02V.137h14.255V14.392Z" transform="translate(-264.28)" fill="#80cc28"/>
    <path id="Path_1074" data-name="Path 1074" d="M14.255,294.509H0V280.254H14.255Z" transform="translate(0 -264.372)" fill="#00adef"/>
    <path id="Path_1075" data-name="Path 1075" d="M294.275,294.509H280.02V280.254h14.255v14.255Z" transform="translate(-264.28 -264.372)" fill="#fbbc09"/>
  </g>
</svg>
