<svg xmlns="http://www.w3.org/2000/svg" width="87" height="57" viewBox="0 0 87 57">
  <g id="Nasa" transform="translate(-5155 442)">
    <rect id="Rectangle_1410" data-name="Rectangle 1410" width="87" height="57" transform="translate(5155 -442)" fill="#fff" opacity="0"/>
    <g id="nasa_logo" transform="translate(5164.546 -448.592)">
      <path id="Path_1446" data-name="Path 1446" d="M46.2,74.357a28.5,28.5,0,1,0-28.46-28.5,28.48,28.48,0,0,0,28.46,28.5Z" transform="translate(-11.002 -10.765)" fill="#33348e" fill-rule="evenodd"/>
      <path id="Path_1447" data-name="Path 1447" d="M79.209,61.561a10.683,10.683,0,0,1-2.274-1.633l-.527.49s1.22,1.4,1.945,2.384l.857-1.241Zm-7.846,5.781a.335.335,0,1,0-.338-.335A.336.336,0,0,0,71.363,67.341Zm.313,2.622a.257.257,0,0,0,.23-.124.252.252,0,0,0,0-.26.256.256,0,1,0-.23.384Zm11.892-2.489a.231.231,0,1,0-.233-.231A.232.232,0,0,0,83.568,67.474ZM91.62,62.6a.162.162,0,1,0-.163-.162.163.163,0,0,0,.163.162Zm.231,3.169a.162.162,0,1,0-.163-.162.163.163,0,0,0,.163.162Zm1.509,5.994a.335.335,0,1,0-.338-.335A.336.336,0,0,0,93.359,71.766Zm.329-10.5a.346.346,0,1,0-.349-.346.348.348,0,0,0,.349.346ZM93.787,63.212Zm3.272-3.69a.173.173,0,1,0-.175-.173A.174.174,0,0,0,97.059,59.522ZM100.257,63.152Zm1.437-.674a.289.289,0,1,0-.292-.289.29.29,0,0,0,.292.289ZM97.586,65.52a.277.277,0,1,0-.279-.277A.278.278,0,0,0,97.586,65.52Zm2.942,1.327a.15.15,0,1,0-.141-.15.15.15,0,0,0,.141.15ZM81.838,29.717a.347.347,0,1,0-.35-.346A.348.348,0,0,0,81.838,29.717ZM80.453,26.1a.2.2,0,1,0-.2-.2A.2.2,0,0,0,80.453,26.1Zm-.338,4.475A.115.115,0,1,0,80,30.456.116.116,0,0,0,80.115,30.571Zm-5.463.53a.254.254,0,1,0-.256-.254A.255.255,0,0,0,74.651,31.1Zm-.47-.587a.116.116,0,1,0-.108-.115A.116.116,0,0,0,74.181,30.514ZM85.521,35.7a.243.243,0,1,0-.245-.243A.244.244,0,0,0,85.521,35.7Zm2.984,14.183s4.319,1.315,2.868,5c0,0-1.879,3.755-7.45,1.927l-1.137,1.012-.041-3.568,1.624,1.217s3.725,1,3.791-1.11c0,0-.19-.783-3.049-1.649,0,0-3.33-1.013-2.571-3.919,0,0,.527-4.523,7.136-2.694l1.154-.62-.016,3.461-1.426-1.388s-2.983-.955-3.428.482c-.485,1.566,1.459,1.461,2.547,1.853Zm6.477-4.008H99.96l4.022,9.592,1.319,1.274H98.51L99.6,55.667l-.56-1.437H95.378l-.429,1.5.758,1.012h-3.23l1.1-1.094,2.669-8.425Z" transform="translate(-44.4 -15.943)" fill="#fff" fill-rule="evenodd"/>
      <path id="Path_1448" data-name="Path 1448" d="M139.013,91.394l-1.549-3.758-1.187,3.758Z" transform="translate(-84.898 -54.57)" fill="#33348e" fill-rule="evenodd"/>
      <path id="Path_1449" data-name="Path 1449" d="M76.355,33.219a.35.35,0,1,0-.35-.35.35.35,0,0,0,.35.35ZM67.413,40.984Zm.742,1.236a.245.245,0,1,0-.245-.245A.245.245,0,0,0,68.155,42.22Zm2.142,2.8a.117.117,0,1,0-.117-.117.117.117,0,0,0,.117.117ZM73.017,35.581Zm-.329,1.4a.2.2,0,1,0-.2-.2A.2.2,0,0,0,72.687,36.982Zm4.121-1.4a.2.2,0,1,0-.2-.2A.2.2,0,0,0,76.808,35.581Zm2.514,1.483a.2.2,0,1,0-.14-.058A.2.2,0,0,0,79.322,37.064ZM96.178,71.791a.436.436,0,1,0-.436-.436.436.436,0,0,0,.436.436Z" transform="translate(-42.096 -20.169)" fill="#fff" fill-rule="evenodd"/>
      <path id="Path_1450" data-name="Path 1450" d="M77.78,119.313l.263-.742.239.733Zm0,.688.263.742.239-.734Zm-.095-.062-.742-.263.733-.239.009.5Zm.7,0,.742-.263-.733-.239-.008.5Zm-1.132-5.88a.28.28,0,1,0-.28-.279.279.279,0,0,0,.28.279Zm-9.024,11.414a.28.28,0,1,0-.255-.135A.28.28,0,0,0,68.229,125.472Zm-10.384-3.049a.28.28,0,1,0-.28-.28A.28.28,0,0,0,57.845,122.424Zm-9.765.082a.28.28,0,1,0-.28-.28.28.28,0,0,0,.28.28Zm1.112-6.4a.187.187,0,1,0-.187-.186A.187.187,0,0,0,49.191,116.108Zm-3.338,2.308a.187.187,0,1,0-.187-.186A.187.187,0,0,0,45.854,118.416Zm4.039-7.624a.186.186,0,1,0-.186-.186.186.186,0,0,0,.186.186Zm-11.538,5.4a.187.187,0,1,0-.187-.186.187.187,0,0,0,.187.186Zm3.091.289a.187.187,0,1,0-.187-.186A.187.187,0,0,0,41.445,116.479Zm-.577,1.511a.338.338,0,1,0-.338-.338A.338.338,0,0,0,40.868,117.99Zm1.071,1.277a.338.338,0,1,0-.322-.338A.338.338,0,0,0,41.939,119.268Z" transform="translate(-23.87 -68.92)" fill="#fff" fill-rule="evenodd"/>
      <path id="Path_1451" data-name="Path 1451" d="M67.532,32.676c5.128-4.226,9.352-7.863,10.837-10.618,0,0-3.255,10.889-18.468,22.267,0,0-23.227,15.842-29.574,20.288A57.373,57.373,0,0,0,19.5,75.157l-.115-1.046s3.723-5.476,12.2-11.46c7.459-5.263,10.24-7.03,10.24-7.03S59.544,44.539,63.206,39.714c0,0-12.71,7.291-34.629,11.526,0,0-10.142,2.551-16.766,6.686h-.916s5.782-4.912,19.2-8.722c0,0,22.7-6.735,37.442-16.528Z" transform="translate(-6.757 -13.681)" fill="#cc2229" fill-rule="evenodd"/>
      <path id="Path_1452" data-name="Path 1452" d="M30.947,79.406h4.615l3.956,6.659V80.23l-.725-.824h2.9l-.725,1.121V89.2l1.055,1.153H37.408L33.46,83.518v5.719l.849,1.13H30.815l.989-1.2V80.724l-.857-1.319Zm15.378-.017h5.1l3.651,9.683L56.4,90.358H49.852L50.94,89.27l-.56-1.451H46.72L46.5,89.336l.758,1.021H43.82l1.228-1.1,2.547-8.505-1.269-1.36Z" transform="translate(-19.112 -49.46)" fill="#fff" fill-rule="evenodd"/>
      <path id="Path_1453" data-name="Path 1453" d="M76.561,91.459,75.011,87.7l-1.186,3.758Z" transform="translate(-45.977 -54.611)" fill="#33348e" fill-rule="evenodd"/>
      <path id="Path_1454" data-name="Path 1454" d="M75.16,89.137l.392-.144.866,2.122-2.061.515.8-2.493Z" transform="translate(-46.306 -55.412)" fill="#cc2229" fill-rule="evenodd"/>
      <path id="Path_1455" data-name="Path 1455" d="M101.344,83.222a3.254,3.254,0,0,1,2.308-4.285s1.648-1.319,5.109,0l.759-.676v3.494s-1.583-1.664-2.736-1.829-2.308.165-2.143,1.813Z" transform="translate(-63.038 -48.731)" fill="#fff" fill-rule="evenodd"/>
      <path id="Path_1456" data-name="Path 1456" d="M106.706,93.026a13.167,13.167,0,0,0,4.765,1.824,4.548,4.548,0,0,0,3.416-.681,3.636,3.636,0,0,0,.326-.277c4.1-3.911-.788-16.824-8.417-24.823l-.006-.006s-.707-.818-1.187-1.3l.257-.256c.455.455,1.131,1.233,1.2,1.311h0c7.745,8.12,12.639,21.295,8.4,25.334a4,4,0,0,1-.359.3,4.887,4.887,0,0,1-3.68.751,13.512,13.512,0,0,1-4.9-1.871l.184-.312Zm.355-24.2,0,0Z" transform="translate(-65.825 -42.15)" fill="#fff"/>
      <path id="Path_1457" data-name="Path 1457" d="M76.388,53.92l-.17-.2h0l-.172-.2c-3.68-4.268-6.872-6.86-9.566-8.215-3.138-1.577-5.583-1.465-7.321-.369-1.5.949-2.073,3.694-1.061,7.9a45.406,45.406,0,0,0,6.343,13.525l-.006-.009c.009.013,3.216,4.441,3.567,4.7l-.246.328c-.407-.3-3.645-4.778-3.654-4.792l-.006-.008a45.825,45.825,0,0,1-6.4-13.654c-1.058-4.4-.406-7.306,1.243-8.347,1.855-1.17,4.439-1.3,7.723.348,2.739,1.377,5.975,4,9.694,8.314l.174.2h0l.171.2-.316.265Z" transform="translate(-35.654 -27.251)" fill="#fff"/>
      <path id="Path_1458" data-name="Path 1458" d="M89.121,68.375c.8.688,1.682.974,1.967.642s-.134-1.159-.935-1.845-1.682-.975-1.967-.642S88.319,67.689,89.121,68.375Zm7.525-33.5a.545.545,0,1,0-.545-.545A.545.545,0,0,0,96.646,34.877Z" transform="translate(-54.896 -20.955)" fill="#fff" fill-rule="evenodd"/>
      <path id="Path_1459" data-name="Path 1459" d="M87.571,30.915,87.9,29l.3,1.906Zm0,.86.33,1.916.3-1.906Zm-.118-.077-2-.33,1.988-.3Zm.875,0,2.082-.33-2.071-.3ZM74.52,39.611a.545.545,0,1,0-.531-.545A.545.545,0,0,0,74.52,39.611Z" transform="translate(-46.129 -17.986)" fill="#fff" fill-rule="evenodd"/>
      <path id="Path_1460" data-name="Path 1460" d="M69.234,51.2l.33-1.916.3,1.905-.629.011Zm0,.86.33,1.916.3-1.905Zm-.118-.077-2-.33,1.988-.3Zm.876,0,2.081-.33L70,51.352ZM66.535,88.413a.545.545,0,1,0-.546-.545A.545.545,0,0,0,66.535,88.413Z" transform="translate(-41.102 -31.001)" fill="#fff" fill-rule="evenodd"/>
      <path id="Path_1461" data-name="Path 1461" d="M63.115,129.358l.33-1.916.3,1.906Zm0,.861.33,1.916.3-1.906ZM63,130.142l-2-.33,1.988-.3Zm.875,0,2.081-.33-2.071-.3ZM94.838,117.99a.545.545,0,1,0-.545-.545A.545.545,0,0,0,94.838,117.99Z" transform="translate(-38.124 -72.939)" fill="#fff" fill-rule="evenodd"/>
      <path id="Path_1462" data-name="Path 1462" d="M145.793,114.025l.329-1.916.3,1.906Zm0,.861.329,1.916.3-1.906Zm-.118-.077-2-.329,1.988-.3Zm.876,0,2.081-.329-2.071-.3Z" transform="translate(-89.524 -69.83)" fill="#fff" fill-rule="evenodd"/>
    </g>
  </g>
</svg>
