<svg xmlns="http://www.w3.org/2000/svg" width="67.99" height="57.435" viewBox="0 0 67.99 57.435">
  <g id="nasa_logo" transform="translate(-4.138 -6.592)">
    <path id="Path_1304" data-name="Path 1304" d="M46.455,74.792A28.718,28.718,0,1,0,17.738,46.074,28.718,28.718,0,0,0,46.455,74.792Z" transform="translate(-11.002 -10.765)" fill="#33348e" fill-rule="evenodd"/>
    <path id="Path_1305" data-name="Path 1305" d="M79.209,61.9a10.688,10.688,0,0,1-2.274-1.648l-.527.495s1.22,1.417,1.945,2.406l.857-1.253Zm-7.846,5.835a.338.338,0,1,0-.338-.338A.338.338,0,0,0,71.363,67.735Zm.313,2.647a.257.257,0,1,0-.247-.256A.257.257,0,0,0,71.676,70.381Zm11.892-2.512a.233.233,0,1,0-.233-.233A.233.233,0,0,0,83.568,67.869Zm8.052-4.917a.163.163,0,1,0-.163-.163.163.163,0,0,0,.163.163Zm.231,3.2a.163.163,0,1,0-.163-.163.163.163,0,0,0,.163.163ZM93.359,72.2a.338.338,0,1,0-.338-.338A.338.338,0,0,0,93.359,72.2Zm.329-10.6a.349.349,0,1,0-.349-.349.349.349,0,0,0,.349.349ZM93.787,63.566Zm3.272-3.725a.175.175,0,1,0-.175-.175A.175.175,0,0,0,97.059,59.841ZM100.257,63.506Zm1.437-.68a.292.292,0,1,0-.292-.292.292.292,0,0,0,.292.292ZM97.586,65.9a.279.279,0,1,0-.279-.279A.279.279,0,0,0,97.586,65.9Zm2.942,1.339a.152.152,0,1,0-.141-.151.151.151,0,0,0,.141.151ZM81.838,29.755a.35.35,0,1,0-.35-.349A.35.35,0,0,0,81.838,29.755ZM80.453,26.1a.2.2,0,1,0-.2-.2A.2.2,0,0,0,80.453,26.1Zm-.338,4.517A.116.116,0,1,0,80,30.5.116.116,0,0,0,80.115,30.617Zm-5.463.535A.256.256,0,1,0,74.4,30.9.256.256,0,0,0,74.651,31.152Zm-.47-.593a.117.117,0,1,0-.108-.117A.117.117,0,0,0,74.181,30.56ZM85.521,35.8a.245.245,0,1,0-.245-.245A.245.245,0,0,0,85.521,35.8Zm2.984,14.317s4.319,1.327,2.868,5.044c0,0-1.879,3.791-7.45,1.945l-1.137,1.022-.041-3.6,1.624,1.228s3.725,1.014,3.791-1.121c0,0-.19-.791-3.049-1.665,0,0-3.33-1.022-2.571-3.956,0,0,.527-4.565,7.136-2.719l1.154-.626-.016,3.494-1.426-1.4s-2.983-.964-3.428.486c-.485,1.581,1.459,1.475,2.547,1.87Zm6.477-4.046H99.96l4.022,9.683,1.319,1.286H98.51L99.6,55.95l-.56-1.45H95.378l-.429,1.516.758,1.022h-3.23l1.1-1.1,2.669-8.505Z" transform="translate(-44.052 -15.943)" fill="#fff" fill-rule="evenodd"/>
    <path id="Path_1306" data-name="Path 1306" d="M139.013,91.394l-1.549-3.758-1.187,3.758Z" transform="translate(-84.523 -54.354)" fill="#33348e" fill-rule="evenodd"/>
    <path id="Path_1307" data-name="Path 1307" d="M76.355,33.219a.35.35,0,1,0-.35-.35.35.35,0,0,0,.35.35ZM67.413,40.984Zm.742,1.236a.245.245,0,1,0-.245-.245A.245.245,0,0,0,68.155,42.22Zm2.142,2.8a.117.117,0,1,0-.117-.117.117.117,0,0,0,.117.117ZM73.017,35.581Zm-.329,1.4a.2.2,0,1,0-.2-.2A.2.2,0,0,0,72.687,36.982Zm4.121-1.4a.2.2,0,1,0-.2-.2A.2.2,0,0,0,76.808,35.581Zm2.514,1.483a.2.2,0,1,0-.14-.058A.2.2,0,0,0,79.322,37.064ZM96.178,71.791a.436.436,0,1,0-.436-.436.436.436,0,0,0,.436.436Z" transform="translate(-41.811 -20.169)" fill="#fff" fill-rule="evenodd"/>
    <path id="Path_1308" data-name="Path 1308" d="M77.78,119.313l.263-.742.239.733Zm0,.688.263.742.239-.734Zm-.095-.062-.742-.263.733-.239.009.5Zm.7,0,.742-.263-.733-.239-.008.5Zm-1.132-5.88a.28.28,0,1,0-.28-.279.279.279,0,0,0,.28.279Zm-9.024,11.414a.28.28,0,1,0-.255-.135A.28.28,0,0,0,68.229,125.472Zm-10.384-3.049a.28.28,0,1,0-.28-.28A.28.28,0,0,0,57.845,122.424Zm-9.765.082a.28.28,0,1,0-.28-.28.28.28,0,0,0,.28.28Zm1.112-6.4a.187.187,0,1,0-.187-.186A.187.187,0,0,0,49.191,116.108Zm-3.338,2.308a.187.187,0,1,0-.187-.186A.187.187,0,0,0,45.854,118.416Zm4.039-7.624a.186.186,0,1,0-.186-.186.186.186,0,0,0,.186.186Zm-11.538,5.4a.187.187,0,1,0-.187-.186.187.187,0,0,0,.187.186Zm3.091.289a.187.187,0,1,0-.187-.186A.187.187,0,0,0,41.445,116.479Zm-.577,1.511a.338.338,0,1,0-.338-.338A.338.338,0,0,0,40.868,117.99Zm1.071,1.277a.338.338,0,1,0-.322-.338A.338.338,0,0,0,41.939,119.268Z" transform="translate(-23.672 -68.485)" fill="#fff" fill-rule="evenodd"/>
    <path id="Path_1309" data-name="Path 1309" d="M67.965,32.763c5.168-4.26,9.423-7.928,10.92-10.705,0,0-3.28,10.978-18.609,22.449,0,0-23.4,15.972-29.8,20.455A57.824,57.824,0,0,0,19.564,75.592l-.115-1.055s3.752-5.521,12.3-11.554C39.261,57.677,42.063,55.9,42.063,55.9S59.915,44.723,63.606,39.859c0,0-12.807,7.351-34.893,11.62,0,0-10.219,2.571-16.894,6.741h-.923s5.826-4.953,19.342-8.793c0,0,22.869-6.79,37.728-16.664Z" transform="translate(-6.757 -13.681)" fill="#cc2229" fill-rule="evenodd"/>
    <path id="Path_1310" data-name="Path 1310" d="M30.947,79.406h4.615l3.956,6.659V80.23l-.725-.824h2.9l-.725,1.121V89.2l1.055,1.153H37.408L33.46,83.518v5.719l.849,1.13H30.815l.989-1.2V80.724l-.857-1.319Zm15.378-.017h5.1l3.651,9.683L56.4,90.358H49.852L50.94,89.27l-.56-1.451H46.72L46.5,89.336l.758,1.021H43.82l1.228-1.1,2.547-8.505-1.269-1.36Z" transform="translate(-19.112 -49.239)" fill="#fff" fill-rule="evenodd"/>
    <path id="Path_1311" data-name="Path 1311" d="M76.561,91.459,75.011,87.7l-1.186,3.758Z" transform="translate(-45.788 -54.394)" fill="#33348e" fill-rule="evenodd"/>
    <path id="Path_1312" data-name="Path 1312" d="M75.16,89.137l.392-.144.866,2.122-2.061.515.8-2.493Z" transform="translate(-46.118 -55.196)" fill="#cc2229" fill-rule="evenodd"/>
    <path id="Path_1313" data-name="Path 1313" d="M101.344,83.222a3.254,3.254,0,0,1,2.308-4.285s1.648-1.319,5.109,0l.759-.676v3.494s-1.583-1.664-2.736-1.829-2.308.165-2.143,1.813Z" transform="translate(-62.742 -48.54)" fill="#fff" fill-rule="evenodd"/>
    <path id="Path_1314" data-name="Path 1314" d="M106.706,93.026a13.167,13.167,0,0,0,4.765,1.824,4.548,4.548,0,0,0,3.416-.681,3.636,3.636,0,0,0,.326-.277c4.1-3.911-.788-16.824-8.417-24.823l-.006-.006s-.707-.818-1.187-1.3l.257-.256c.455.455,1.131,1.233,1.2,1.311h0c7.745,8.12,12.639,21.295,8.4,25.334a4,4,0,0,1-.359.3,4.887,4.887,0,0,1-3.68.751,13.512,13.512,0,0,1-4.9-1.871l.184-.312Zm.355-24.2,0,0Z" transform="translate(-65.498 -41.87)" fill="#fff"/>
    <path id="Path_1315" data-name="Path 1315" d="M76.388,53.92l-.17-.2h0l-.172-.2c-3.68-4.268-6.872-6.86-9.566-8.215-3.138-1.577-5.583-1.465-7.321-.369-1.5.949-2.073,3.694-1.061,7.9a45.406,45.406,0,0,0,6.343,13.525l-.006-.009c.009.013,3.216,4.441,3.567,4.7l-.246.328c-.407-.3-3.645-4.778-3.654-4.792l-.006-.008a45.825,45.825,0,0,1-6.4-13.654c-1.058-4.4-.406-7.306,1.243-8.347,1.855-1.17,4.439-1.3,7.723.348,2.739,1.377,5.975,4,9.694,8.314l.174.2h0l.171.2-.316.265Z" transform="translate(-35.467 -27.105)" fill="#fff"/>
    <path id="Path_1316" data-name="Path 1316" d="M89.121,68.375c.8.688,1.682.974,1.967.642s-.134-1.159-.935-1.845-1.682-.975-1.967-.642S88.319,67.689,89.121,68.375Zm7.525-33.5a.545.545,0,1,0-.545-.545A.545.545,0,0,0,96.646,34.877Z" transform="translate(-54.64 -20.955)" fill="#fff" fill-rule="evenodd"/>
    <path id="Path_1317" data-name="Path 1317" d="M87.571,30.915,87.9,29l.3,1.906Zm0,.86.33,1.916.3-1.906Zm-.118-.077-2-.33,1.988-.3Zm.875,0,2.082-.33-2.071-.3ZM74.52,39.611a.545.545,0,1,0-.531-.545A.545.545,0,0,0,74.52,39.611Z" transform="translate(-45.89 -17.986)" fill="#fff" fill-rule="evenodd"/>
    <path id="Path_1318" data-name="Path 1318" d="M69.234,51.2l.33-1.916.3,1.905-.629.011Zm0,.86.33,1.916.3-1.905Zm-.118-.077-2-.33,1.988-.3Zm.876,0,2.081-.33L70,51.352ZM66.535,88.413a.545.545,0,1,0-.546-.545A.545.545,0,0,0,66.535,88.413Z" transform="translate(-40.928 -30.566)" fill="#fff" fill-rule="evenodd"/>
    <path id="Path_1319" data-name="Path 1319" d="M63.115,129.358l.33-1.916.3,1.906Zm0,.861.33,1.916.3-1.906ZM63,130.142l-2-.33,1.988-.3Zm.875,0,2.081-.33-2.071-.3ZM94.838,117.99a.545.545,0,1,0-.545-.545A.545.545,0,0,0,94.838,117.99Z" transform="translate(-37.833 -72.504)" fill="#fff" fill-rule="evenodd"/>
    <path id="Path_1320" data-name="Path 1320" d="M145.793,114.025l.329-1.916.3,1.906Zm0,.861.329,1.916.3-1.906Zm-.118-.077-2-.329,1.988-.3Zm.876,0,2.081-.329-2.071-.3Z" transform="translate(-89.112 -69.533)" fill="#fff" fill-rule="evenodd"/>
  </g>
</svg>
