<svg xmlns="http://www.w3.org/2000/svg" width="182" height="57" viewBox="0 0 182 57">
  <g id="Group_425" data-name="Group 425" transform="translate(-5687 442)">
    <rect id="Rectangle_1412" data-name="Rectangle 1412" width="182" height="57" transform="translate(5687 -442)" fill="#fff" opacity="0"/>
    <g id="paypal_logo" transform="translate(5757.322 -315.048)">
      <g id="Group_415" data-name="Group 415" transform="translate(-65.762 -120.952)">
        <path id="Path_1430" data-name="Path 1430" d="M44.671-87.365c-2.023-2.384-5.678-3.406-10.355-3.406H20.741a1.965,1.965,0,0,0-1.921,1.7L13.171-52.007a1.233,1.233,0,0,0,.265.97,1.149,1.149,0,0,0,.886.421H22.7l2.1-13.8-.065.432a1.959,1.959,0,0,1,1.913-1.7h3.982c7.823,0,13.949-3.286,15.738-12.79q.08-.422.139-.822c.532-3.513,0-5.9-1.841-8.069" transform="translate(-13.155 90.771)" fill="#003087"/>
        <path id="Path_1431" data-name="Path 1431" d="M232.5-62.1c-.512,3.364-3.081,3.364-5.565,3.364H225.52l.992-6.28a.78.78,0,0,1,.771-.658h.649c1.691,0,3.289,0,4.113.963A3.132,3.132,0,0,1,232.5-62.1m-1.081-8.776h-9.371a1.3,1.3,0,0,0-1.288,1.1l-3.786,24.027a.782.782,0,0,0,.178.628.782.782,0,0,0,.593.274h4.809a.911.911,0,0,0,.9-.768l1.075-6.814a1.3,1.3,0,0,1,1.286-1.1h2.965c6.174,0,9.736-2.985,10.666-8.907.419-2.588.017-4.623-1.195-6.047-1.333-1.566-3.695-2.395-6.83-2.395" transform="translate(-94.263 83.771)" fill="#009cde"/>
        <path id="Path_1432" data-name="Path 1432" d="M117.613-62.1c-.512,3.364-3.081,3.364-5.566,3.364h-1.414l.992-6.28a.78.78,0,0,1,.771-.658h.649c1.691,0,3.289,0,4.113.963a3.127,3.127,0,0,1,.455,2.612m-1.081-8.776h-9.371a1.3,1.3,0,0,0-1.287,1.1l-3.788,24.027a.781.781,0,0,0,.177.629.78.78,0,0,0,.593.274h4.475a1.3,1.3,0,0,0,1.286-1.1l1.023-6.482a1.3,1.3,0,0,1,1.286-1.1h2.965c6.174,0,9.736-2.987,10.666-8.908.419-2.588.017-4.623-1.195-6.047-1.333-1.566-3.695-2.395-6.83-2.395m21.755,17.4a5,5,0,0,1-5.065,4.285,3.788,3.788,0,0,1-3.013-1.212,3.809,3.809,0,0,1-.7-3.151,5.021,5.021,0,0,1,5.028-4.318,3.782,3.782,0,0,1,2.991,1.223,3.863,3.863,0,0,1,.761,3.173m6.254-8.735h-4.487a.782.782,0,0,0-.773.661l-.2,1.254-.314-.454c-.971-1.41-3.138-1.882-5.3-1.882A10.318,10.318,0,0,0,123.454-53.6a8.471,8.471,0,0,0,1.671,6.9,7.022,7.022,0,0,0,5.651,2.281,8.592,8.592,0,0,0,6.212-2.566l-.2,1.247a.781.781,0,0,0,.178.629.781.781,0,0,0,.594.273h4.04a1.3,1.3,0,0,0,1.287-1.1l2.426-15.36a.782.782,0,0,0-.179-.629.782.782,0,0,0-.595-.273" transform="translate(-48.254 83.771)" fill="#003087"/>
        <path id="Path_1433" data-name="Path 1433" d="M268.445-47.543a5,5,0,0,1-5.065,4.285,3.788,3.788,0,0,1-3.013-1.212,3.809,3.809,0,0,1-.7-3.151,5.02,5.02,0,0,1,5.029-4.318,3.782,3.782,0,0,1,2.991,1.223,3.863,3.863,0,0,1,.761,3.173m6.254-8.735h-4.487a.782.782,0,0,0-.773.661l-.2,1.254-.314-.454c-.971-1.41-3.138-1.882-5.3-1.882a10.32,10.32,0,0,0-10.016,9.025,8.472,8.472,0,0,0,1.672,6.9,7.021,7.021,0,0,0,5.651,2.281,8.593,8.593,0,0,0,6.214-2.566l-.2,1.247a.778.778,0,0,0,.176.629.778.778,0,0,0,.594.273h4.039a1.3,1.3,0,0,0,1.288-1.1l2.426-15.36a.782.782,0,0,0-.179-.629.782.782,0,0,0-.595-.273" transform="translate(-108.455 77.843)" fill="#009cde"/>
        <path id="Path_1434" data-name="Path 1434" d="M201.117-55.973h-4.511a1.3,1.3,0,0,0-1.075.571l-6.222,9.163-2.637-8.805a1.3,1.3,0,0,0-1.248-.93H180.99a.782.782,0,0,0-.636.327.782.782,0,0,0-.1.707l4.966,14.578-4.671,6.591a.782.782,0,0,0-.055.81.782.782,0,0,0,.693.422h4.507a1.3,1.3,0,0,0,1.069-.559l15-21.648a.78.78,0,0,0,.051-.807.78.78,0,0,0-.692-.419" transform="translate(-79.657 77.539)" fill="#003087"/>
        <path id="Path_1435" data-name="Path 1435" d="M296.271-70.212l-3.847,24.467a.782.782,0,0,0,.178.629.782.782,0,0,0,.594.274h3.867a1.3,1.3,0,0,0,1.287-1.1l3.793-24.028a.781.781,0,0,0-.178-.629.78.78,0,0,0-.594-.273h-4.328a.779.779,0,0,0-.772.66" transform="translate(-124.74 83.77)" fill="#009cde"/>
        <path id="Path_1436" data-name="Path 1436" d="M44.671-87.365c-2.023-2.384-5.678-3.406-10.355-3.406H20.741a1.965,1.965,0,0,0-1.921,1.7L13.171-52.007a1.233,1.233,0,0,0,.265.97,1.149,1.149,0,0,0,.886.421H22.7l2.1-13.8-.065.432a1.959,1.959,0,0,1,1.913-1.7h3.982c7.823,0,13.949-3.286,15.738-12.79q.08-.422.139-.822c.532-3.513,0-5.9-1.841-8.069" transform="translate(-13.155 90.771)" fill="#003087"/>
        <path id="Path_1437" data-name="Path 1437" d="M27.067-79.247a1.72,1.72,0,0,1,1.678-1.483H39.386a21.652,21.652,0,0,1,3.51.262,14.334,14.334,0,0,1,1.74.4,9.432,9.432,0,0,1,1.874.772c.534-3.514,0-5.9-1.84-8.071-2.024-2.382-5.678-3.4-10.355-3.4H20.739a1.965,1.965,0,0,0-1.919,1.7L13.169-52.009a1.233,1.233,0,0,0,.265.971,1.149,1.149,0,0,0,.886.422H22.7l2.1-13.8Z" transform="translate(-13.154 90.77)" fill="#003087"/>
        <path id="Path_1438" data-name="Path 1438" d="M52.948-71.7q-.062.4-.139.795c-1.789,9.191-7.915,12.369-15.738,12.369H33.087a1.936,1.936,0,0,0-1.911,1.64l-2.039,12.93-.58,3.668a1.02,1.02,0,0,0,.232.822,1.02,1.02,0,0,0,.776.357h7.064a1.7,1.7,0,0,0,1.678-1.434l.069-.36,1.331-8.438.085-.466a1.7,1.7,0,0,1,1.679-1.434h1.057c6.843,0,12.2-2.779,13.767-10.821.652-3.359.314-6.165-1.414-8.136A6.746,6.746,0,0,0,52.948-71.7" transform="translate(-19.591 84.114)" fill="#009cde"/>
        <path id="Path_1439" data-name="Path 1439" d="M52.966-73.44q-.41-.121-.845-.217c-.29-.064-.59-.121-.9-.169a21.942,21.942,0,0,0-3.511-.257H37.073A1.7,1.7,0,0,0,35.4-72.649L33.133-58.307l-.065.417a1.936,1.936,0,0,1,1.911-1.64h3.983c7.823,0,13.949-3.178,15.738-12.369.053-.272.1-.535.139-.795a9.664,9.664,0,0,0-1.472-.621c-.132-.043-.266-.085-.4-.126" transform="translate(-21.483 84.258)" fill="#012169"/>
      </g>
    </g>
  </g>
</svg>
